<svg width="363" height="363" viewBox="0 0 363 363" fill="none" xmlns="http://www.w3.org/2000/svg">
<g clip-path="url(#clip0_43_618)">
<path d="M174.256 26.4723H155.493C142.766 26.4723 136.122 26.6536 134.906 26.9702C132.472 27.6967 130.086 29.7381 128.917 32.0501C127.981 33.9101 127.934 34.7708 127.934 46.3369V58.6721H76.3734C27.105 58.6721 24.6719 58.7176 22.8939 59.5345C20.6948 60.5321 18.2617 62.8902 17.5597 64.7041C17.1856 65.5665 17.0454 94.9104 17.0454 159.402C17.0454 244.756 17.0923 252.919 17.7937 254.28C18.8698 256.321 20.2737 257.727 22.4259 258.815L24.2978 259.813L99.2999 259.949L174.256 260.04V365.259H197.181V260.04L270.312 259.949L343.395 259.813L345.266 258.815C347.607 257.591 349.01 256.185 349.945 254.053C350.554 252.557 350.649 242.261 350.649 159.129C350.649 68.2872 350.648 65.8377 349.759 64.2062C348.589 62.0295 346.67 60.2593 344.472 59.3975C342.928 58.7636 336.751 58.6721 291.273 58.6721H239.806L239.665 45.7917L239.525 32.9124L238.122 30.9171C237.185 29.6466 235.828 28.5131 234.192 27.6967L231.617 26.4723H197.181H174.256Z" fill="black"/>
<path d="M139.378 114.293C137.906 114.293 136.648 113.887 135.602 113.077C134.557 112.266 133.757 111.157 133.202 109.749C132.669 108.341 132.402 106.741 132.402 104.949C132.402 102.943 132.872 101.045 133.81 99.2527C134.749 97.4393 135.976 95.9887 137.49 94.9007C139.026 93.7913 140.616 93.2367 142.258 93.2367C143.645 93.2367 144.712 93.546 145.458 94.1647C146.205 94.7833 146.578 95.5087 146.578 96.3407C146.578 96.8313 146.429 97.2793 146.13 97.6847C145.853 98.09 145.448 98.3993 144.914 98.6127C144.85 98.4847 144.818 98.282 144.818 98.0047C144.818 97.7487 144.85 97.4927 144.914 97.2367C144.957 96.8953 144.978 96.65 144.978 96.5007C144.978 96.2873 144.946 96.106 144.882 95.9567C144.584 95.21 143.773 94.8367 142.45 94.8367C142.088 94.8367 141.661 94.8687 141.17 94.9327C140.04 95.082 138.92 95.6473 137.81 96.6287C136.701 97.5887 135.794 98.794 135.09 100.245C134.386 101.695 134.034 103.178 134.034 104.693C134.034 106.015 134.248 107.274 134.674 108.469C135.122 109.642 135.762 110.591 136.594 111.317C137.426 112.042 138.418 112.405 139.57 112.405C141.064 112.405 142.301 112.223 143.282 111.861C144.285 111.498 145.266 110.943 146.226 110.197C146.333 110.111 146.45 110.069 146.578 110.069C146.813 110.069 146.973 110.207 147.058 110.485C147.165 110.997 146.824 111.551 146.034 112.149C145.245 112.746 144.221 113.258 142.962 113.685C141.704 114.09 140.509 114.293 139.378 114.293ZM157.869 113.941C155.65 113.941 153.719 113.557 152.077 112.789C150.455 111.999 149.645 110.623 149.645 108.661C149.645 107.957 149.858 107.274 150.285 106.613C150.711 105.951 151.341 105.418 152.173 105.013C153.005 104.586 154.018 104.373 155.213 104.373C156.13 104.373 156.909 104.415 157.549 104.501C158.189 104.586 158.925 104.821 159.757 105.205C160.589 105.589 161.453 106.197 162.349 107.029C162.007 105.557 161.495 104.266 160.813 103.157C160.13 102.047 159.362 101.194 158.509 100.597C157.677 99.978 156.855 99.6687 156.045 99.6687C155.661 99.6687 155.298 99.7433 154.957 99.8927C154.637 100.021 154.242 100.213 153.773 100.469C153.239 100.81 152.845 100.981 152.589 100.981C152.482 100.981 152.386 100.949 152.301 100.885C152.237 100.799 152.205 100.703 152.205 100.597C152.205 99.7433 152.578 99.082 153.325 98.6127C154.093 98.1433 155.021 97.93 156.109 97.9727C157.602 98.058 158.967 98.698 160.205 99.8927C161.442 101.066 162.413 102.527 163.117 104.277C163.842 106.026 164.205 107.743 164.205 109.429C164.205 109.706 164.183 110.101 164.141 110.613L163.117 110.549C162.306 108.906 161.261 107.743 159.981 107.061C158.722 106.357 157.453 106.005 156.173 106.005C154.53 106.005 153.357 106.25 152.653 106.741C151.949 107.231 151.597 107.946 151.597 108.885C151.597 109.866 152.087 110.655 153.069 111.253C154.05 111.85 155.309 112.149 156.845 112.149C157.698 112.149 158.381 112.106 158.893 112.021C159.405 111.914 159.938 111.775 160.493 111.605C160.941 111.455 161.335 111.349 161.677 111.285C162.018 111.221 162.455 111.189 162.989 111.189C163.586 111.189 163.959 111.231 164.109 111.317C164.279 111.402 164.365 111.594 164.365 111.893C164.365 112.106 163.927 112.373 163.053 112.693C162.178 113.013 161.197 113.301 160.109 113.557C159.021 113.813 158.274 113.941 157.869 113.941ZM181.646 113.781C181.262 113.781 180.953 113.621 180.718 113.301C180.505 112.959 180.313 112.447 180.142 111.765C179.971 111.061 179.705 109.845 179.342 108.117C178.979 109.546 178.297 110.687 177.294 111.541C176.291 112.373 175.065 112.789 173.614 112.789C172.291 112.789 171.171 112.33 170.254 111.413C169.358 110.474 168.686 109.247 168.238 107.733C167.79 106.197 167.566 104.543 167.566 102.773C167.566 101.962 167.641 101.269 167.79 100.693C167.961 100.095 168.163 99.6473 168.398 99.3487C168.654 99.05 168.899 98.9113 169.134 98.9327C169.39 98.9327 169.518 99.1033 169.518 99.4447C169.518 99.722 169.443 100.159 169.294 100.757C169.145 101.418 169.07 102.175 169.07 103.029C169.07 104.309 169.251 105.557 169.614 106.773C169.998 107.989 170.553 108.991 171.278 109.781C172.025 110.549 172.899 110.933 173.902 110.933C174.734 110.933 175.491 110.687 176.174 110.197C176.857 109.706 177.39 109.087 177.774 108.341C178.179 107.594 178.382 106.858 178.382 106.133V101.045C178.617 100.597 178.937 100.373 179.342 100.373C179.705 100.373 179.95 100.682 180.078 101.301C180.206 101.919 180.27 102.794 180.27 103.925C180.27 104.885 180.259 105.621 180.238 106.133C180.366 106.837 180.558 107.551 180.814 108.277C181.091 109.002 181.433 109.823 181.838 110.741C182.329 111.871 182.574 112.565 182.574 112.821C182.574 113.461 182.265 113.781 181.646 113.781ZM190.297 113.941C190.083 113.983 189.945 114.005 189.881 114.005C189.219 114.005 188.761 113.514 188.505 112.533C188.27 111.551 188.153 110.175 188.153 108.405C188.153 107.679 188.174 106.549 188.217 105.013C188.259 104.074 188.281 103.37 188.281 102.901C185.657 102.901 184.345 102.602 184.345 102.005C184.345 101.813 184.366 101.663 184.409 101.557C184.473 101.45 184.601 101.397 184.793 101.397L188.281 101.173C188.259 100.127 188.206 98.986 188.121 97.7487C188.035 96.6393 187.982 95.6153 187.961 94.6767C187.961 94.442 188.057 94.282 188.249 94.1967C188.441 94.09 188.643 94.0367 188.857 94.0367C189.113 94.0367 189.326 94.1753 189.497 94.4527C189.667 94.7087 189.753 94.9753 189.753 95.2527L189.977 101.109L192.633 101.237C193.038 101.194 193.379 101.269 193.657 101.461C193.955 101.653 194.115 101.973 194.137 102.421C193.689 102.613 193.198 102.73 192.665 102.773C192.131 102.815 191.235 102.837 189.977 102.837C189.977 104.821 190.073 108.085 190.265 112.629C190.265 113.098 190.265 113.429 190.265 113.621C190.286 113.791 190.297 113.898 190.297 113.941ZM198.039 113.973C197.548 113.973 197.153 113.258 196.855 111.829C196.556 110.378 196.364 109.13 196.279 108.085C196.193 107.039 196.076 105.386 195.927 103.125C195.905 102.762 195.895 102.293 195.895 101.717C195.895 100.991 195.948 100.49 196.055 100.213C196.183 99.9353 196.385 99.7967 196.663 99.7967C196.897 99.7967 197.079 99.85 197.207 99.9567C197.356 100.042 197.484 100.191 197.591 100.405L197.559 101.685C197.559 103.05 197.623 104.341 197.751 105.557C197.9 106.773 198.124 108.405 198.423 110.453C198.593 111.349 198.711 112.085 198.775 112.661C198.817 112.959 198.764 113.258 198.615 113.557C198.465 113.834 198.273 113.973 198.039 113.973ZM197.239 96.3727C196.769 96.3727 196.417 96.1913 196.183 95.8287C195.969 95.466 195.863 95.018 195.863 94.4847C195.863 94.25 195.873 94.0793 195.895 93.9727C195.873 93.6313 196.065 93.4607 196.471 93.4607C196.769 93.4607 197.068 93.5353 197.367 93.6847C197.687 93.8127 197.783 93.9087 197.655 93.9727C197.868 94.5273 197.975 94.9647 197.975 95.2847C197.975 95.562 197.911 95.786 197.783 95.9567C197.655 96.106 197.473 96.2447 197.239 96.3727ZM208.269 113.973C207.01 113.973 205.869 113.695 204.845 113.141C203.842 112.565 203.053 111.775 202.477 110.773C201.922 109.749 201.645 108.586 201.645 107.285C201.645 105.151 202.423 103.562 203.981 102.517C205.559 101.471 207.49 100.949 209.773 100.949C210.818 100.949 211.789 101.205 212.685 101.717C213.602 102.229 214.338 102.965 214.893 103.925C215.447 104.885 215.725 105.994 215.725 107.253C215.725 108.618 215.373 109.813 214.669 110.837C213.965 111.839 213.037 112.618 211.885 113.173C210.754 113.706 209.549 113.973 208.269 113.973ZM207.917 112.149C209.901 112.149 211.405 111.701 212.429 110.805C213.453 109.909 213.965 108.597 213.965 106.869C213.965 105.695 213.559 104.682 212.749 103.829C211.959 102.975 210.85 102.549 209.421 102.549C208.461 102.549 207.49 102.73 206.509 103.093C205.527 103.455 204.717 103.999 204.077 104.725C203.437 105.45 203.117 106.325 203.117 107.349C203.117 108.202 203.33 109.002 203.757 109.749C204.183 110.474 204.759 111.061 205.485 111.509C206.231 111.935 207.042 112.149 207.917 112.149ZM221.31 114.069C221.011 114.154 220.84 114.197 220.798 114.197C220.627 114.197 220.446 114.111 220.254 113.941C219.55 112.895 219.038 111.071 218.718 108.469C218.419 105.866 218.27 103.626 218.27 101.749C218.27 101.45 218.483 101.301 218.91 101.301C219.55 101.301 219.87 101.653 219.87 102.357C219.87 102.549 219.859 102.709 219.838 102.837C220.03 102.389 220.392 101.93 220.926 101.461C221.459 100.991 222.078 100.597 222.782 100.277C223.486 99.9567 224.2 99.7967 224.926 99.7967C227.208 99.7967 228.872 100.81 229.918 102.837C230.963 104.842 231.486 107.338 231.486 110.325C231.486 111.349 231.379 112.17 231.166 112.789C230.952 113.386 230.664 113.685 230.302 113.685C229.918 113.685 229.726 113.567 229.726 113.333C229.875 112.202 229.95 111.093 229.95 110.005C229.95 107.253 229.47 105.173 228.51 103.765C227.55 102.335 226.28 101.621 224.702 101.621C223.934 101.621 223.187 101.813 222.462 102.197C221.758 102.581 221.182 103.114 220.734 103.797C220.307 104.479 220.094 105.258 220.094 106.133C220.094 107.114 220.147 107.967 220.254 108.693C220.36 109.418 220.531 110.293 220.766 111.317C221.022 112.319 221.203 113.237 221.31 114.069ZM234.787 107.029C234.488 107.029 234.307 106.901 234.243 106.645C234.072 105.514 233.987 103.637 233.987 101.013L234.019 97.6207C234.04 96.8953 234.051 95.8607 234.051 94.5167C234.051 93.2153 234.019 92.17 233.955 91.3807C233.976 91.274 234.072 91.1887 234.243 91.1247C234.435 91.0393 234.659 90.9967 234.915 90.9967C235.15 90.9967 235.342 91.0287 235.491 91.0927C235.512 92.5007 235.555 94.794 235.619 97.9727C235.704 101.13 235.768 103.509 235.811 105.109L235.843 105.845C235.843 106.634 235.576 107.029 235.043 107.029H234.787ZM234.723 113.973C234.211 113.973 233.838 113.845 233.603 113.589C233.39 113.311 233.283 112.917 233.283 112.405C233.283 111.807 233.496 111.359 233.923 111.061C234.371 110.762 234.936 110.613 235.619 110.613C236.024 110.613 236.355 110.815 236.611 111.221C236.867 111.605 236.995 111.999 236.995 112.405C236.995 112.831 236.728 113.205 236.195 113.525C235.683 113.823 235.192 113.973 234.723 113.973ZM50.6734 160.973C50.0761 160.973 49.6601 160.663 49.4254 160.045C49.1907 159.426 48.9987 158.594 48.8494 157.549L48.7534 156.749C48.4334 155.042 48.1774 153.346 47.9854 151.661C47.7934 149.954 47.6014 147.895 47.4094 145.485L47.2174 143.117C45.9374 143.138 44.1134 143.085 41.7454 142.957L41.1054 142.925C40.8067 142.903 40.5934 142.765 40.4654 142.509C40.3587 142.231 40.3054 141.858 40.3054 141.389H42.5134C46.2254 141.389 49.5747 141.527 52.5614 141.805C55.5481 142.082 57.0414 142.647 57.0414 143.501C57.0414 143.735 56.9987 143.895 56.9134 143.981C56.8494 144.066 56.7001 144.109 56.4654 144.109C55.6121 144.045 54.2894 143.863 52.4974 143.565C52.0921 143.501 51.6014 143.426 51.0254 143.341C50.4494 143.255 49.7987 143.17 49.0734 143.085C49.0734 146.178 49.5321 150.935 50.4494 157.357C50.4921 157.677 50.6414 158.135 50.8974 158.733C51.0041 158.989 51.1001 159.266 51.1854 159.565C51.2921 159.842 51.3454 160.098 51.3454 160.333C51.3454 160.631 51.3027 160.813 51.2174 160.877C51.1321 160.941 51.0254 160.973 50.8974 160.973C50.7907 160.973 50.7161 160.973 50.6734 160.973ZM62.6491 160.877C62.5425 160.898 62.4251 160.493 62.2971 159.661C62.1905 158.829 62.0411 157.399 61.8491 155.373C61.5505 152.045 61.2091 148.994 60.8251 146.221C60.4625 143.447 60.0038 141.047 59.4491 139.021C59.4065 138.85 59.4705 138.701 59.6411 138.573C59.8118 138.445 60.0465 138.381 60.3451 138.381C60.4945 138.381 60.6118 138.391 60.6971 138.413C61.2305 139.863 61.6038 141.143 61.8171 142.253C62.0518 143.362 62.2651 144.727 62.4571 146.349L62.6171 147.597C63.8971 146.829 65.0705 146.445 66.1371 146.445C68.0785 146.445 69.4545 147.33 70.2651 149.101C71.0971 150.85 71.5131 153.346 71.5131 156.589C71.5131 157.826 71.4385 158.871 71.2891 159.725C71.1398 160.557 70.9585 160.973 70.7451 160.973C70.4678 160.973 70.1585 160.77 69.8171 160.365V159.309L69.8491 155.821C69.8491 155.159 69.8278 154.338 69.7851 153.357C69.7211 151.693 69.3798 150.434 68.7611 149.581C68.1638 148.727 67.1291 148.301 65.6571 148.301C64.6758 148.301 63.7585 148.663 62.9051 149.389C62.9051 150.199 62.9371 151.031 63.0011 151.885C63.0865 152.738 63.1825 153.57 63.2891 154.381C63.4385 155.511 63.5451 156.514 63.6091 157.389C63.6945 158.242 63.7371 159.191 63.7371 160.237C63.6091 160.493 63.4598 160.663 63.2891 160.749C63.1398 160.834 62.9265 160.877 62.6491 160.877ZM76.4606 160.973C75.97 160.973 75.5753 160.258 75.2766 158.829C74.978 157.378 74.786 156.13 74.7006 155.085C74.6153 154.039 74.498 152.386 74.3486 150.125C74.3273 149.762 74.3166 149.293 74.3166 148.717C74.3166 147.991 74.37 147.49 74.4766 147.213C74.6046 146.935 74.8073 146.797 75.0846 146.797C75.3193 146.797 75.5006 146.85 75.6286 146.957C75.778 147.042 75.906 147.191 76.0126 147.405L75.9806 148.685C75.9806 150.05 76.0446 151.341 76.1726 152.557C76.322 153.773 76.546 155.405 76.8446 157.453C77.0153 158.349 77.1326 159.085 77.1966 159.661C77.2393 159.959 77.186 160.258 77.0366 160.557C76.8873 160.834 76.6953 160.973 76.4606 160.973ZM75.6606 143.373C75.1913 143.373 74.8393 143.191 74.6046 142.829C74.3913 142.466 74.2846 142.018 74.2846 141.485C74.2846 141.25 74.2953 141.079 74.3166 140.973C74.2953 140.631 74.4873 140.461 74.8926 140.461C75.1913 140.461 75.49 140.535 75.7886 140.685C76.1086 140.813 76.2046 140.909 76.0766 140.973C76.29 141.527 76.3966 141.965 76.3966 142.285C76.3966 142.562 76.3326 142.786 76.2046 142.957C76.0766 143.106 75.8953 143.245 75.6606 143.373ZM80.2266 157.165C80.5253 156.93 80.8133 156.813 81.0906 156.813C81.3466 156.813 81.592 156.887 81.8266 157.037C82.0826 157.186 82.3386 157.378 82.5946 157.613C82.8506 157.826 83.0533 157.986 83.2026 158.093C83.6933 158.477 84.3653 158.775 85.2186 158.989C86.072 159.202 86.9786 159.309 87.9386 159.309C89.0266 159.309 89.9973 159.106 90.8506 158.701C91.7253 158.274 92.1626 157.709 92.1626 157.005C92.1626 156.365 91.928 155.863 91.4586 155.501C90.9893 155.117 90.424 154.839 89.7626 154.669C89.1013 154.498 88.2266 154.338 87.1386 154.189C85.6666 154.018 84.4933 153.805 83.6186 153.549C82.7653 153.293 82.0826 152.877 81.5706 152.301C81.0586 151.703 80.8026 150.871 80.8026 149.805C80.8026 148.653 81.3466 147.799 82.4346 147.245C83.5226 146.669 84.7706 146.381 86.1786 146.381C87.4586 146.381 88.5466 146.658 89.4426 147.213C90.36 147.746 90.8293 148.514 90.8506 149.517C90.8933 150.093 90.808 150.551 90.5946 150.893C90.3813 151.213 90.1253 151.373 89.8266 151.373C89.656 151.373 89.5066 151.309 89.3786 151.181C89.272 151.053 89.2186 150.882 89.2186 150.669C89.2186 150.327 89.336 149.954 89.5706 149.549C89.464 149.037 89.112 148.653 88.5146 148.397C87.9386 148.141 87.2453 148.013 86.4346 148.013C85.24 148.013 84.2906 148.237 83.5866 148.685C82.8826 149.111 82.5306 149.623 82.5306 150.221C82.5306 150.861 82.7866 151.351 83.2986 151.693C83.8106 152.034 84.4293 152.279 85.1546 152.429C85.9013 152.557 86.9573 152.685 88.3226 152.813C89.4533 152.962 90.3706 153.143 91.0746 153.357C91.8 153.57 92.408 153.986 92.8986 154.605C93.3893 155.202 93.6346 156.066 93.6346 157.197C93.6346 158.37 93.0906 159.298 92.0026 159.981C90.9146 160.642 89.6133 160.973 88.0986 160.973C86.1573 160.973 84.4186 160.642 82.8826 159.981C81.368 159.319 80.4826 158.381 80.2266 157.165ZM109.82 160.909C108.817 160.909 107.943 160.567 107.196 159.885C106.471 159.202 105.916 158.317 105.532 157.229C105.169 156.141 104.988 155.01 104.988 153.837C104.988 151.789 105.415 150.061 106.268 148.653C107.143 147.245 108.465 146.541 110.236 146.541C111.303 146.541 112.231 146.733 113.02 147.117C113.831 147.479 114.887 148.098 116.188 148.973L117.02 149.549C116.913 148.845 116.753 148.034 116.54 147.117C116.327 146.199 116.188 145.57 116.124 145.229C115.761 143.565 115.495 142.327 115.324 141.517C115.175 140.685 115.1 139.949 115.1 139.309C115.1 138.178 115.42 137.613 116.06 137.613C116.295 138.125 116.572 139.223 116.892 140.909C117.212 142.573 117.617 144.855 118.108 147.757C118.62 150.829 119.068 153.335 119.452 155.277C119.836 157.218 120.156 158.434 120.412 158.925C120.412 159.415 120.049 159.661 119.324 159.661C118.769 159.661 118.385 159.341 118.172 158.701C117.98 158.061 117.863 156.941 117.82 155.341H117.564C116.668 156.962 115.505 158.295 114.076 159.341C112.647 160.386 111.228 160.909 109.82 160.909ZM110.236 159.341C111.111 159.341 112.049 158.978 113.052 158.253C114.076 157.506 114.94 156.61 115.644 155.565C116.348 154.498 116.7 153.538 116.7 152.685V151.725C114.503 149.421 112.476 148.269 110.62 148.269C109.319 148.269 108.316 148.749 107.612 149.709C106.908 150.647 106.556 151.885 106.556 153.421L106.588 154.093C106.716 155.714 107.079 156.994 107.676 157.933C108.273 158.871 109.127 159.341 110.236 159.341ZM129.869 160.941C128.503 160.941 127.245 160.674 126.093 160.141C124.941 159.607 124.023 158.85 123.341 157.869C122.658 156.887 122.317 155.757 122.317 154.477C122.317 153.047 122.583 151.714 123.117 150.477C123.65 149.218 124.429 148.215 125.453 147.469C126.498 146.701 127.714 146.317 129.101 146.317C130.551 146.317 131.65 146.786 132.397 147.725C133.143 148.642 133.495 149.805 133.453 151.213C133.453 152.471 132.951 153.431 131.949 154.093C130.967 154.754 129.709 155.085 128.173 155.085C127.938 155.085 127.586 155.063 127.117 155.021C126.349 154.935 125.805 154.818 125.485 154.669C125.165 154.519 125.005 154.221 125.005 153.773C125.005 153.623 125.047 153.517 125.133 153.453C125.218 153.367 125.389 153.325 125.645 153.325C125.922 153.325 126.413 153.389 127.117 153.517C127.799 153.645 128.407 153.709 128.941 153.709C130.903 153.709 131.885 152.855 131.885 151.149C131.885 150.125 131.693 149.314 131.309 148.717C130.946 148.119 130.295 147.821 129.357 147.821C128.333 147.821 127.415 148.098 126.605 148.653C125.794 149.186 125.165 149.89 124.717 150.765C124.29 151.639 124.077 152.567 124.077 153.549C124.077 155.234 124.546 156.621 125.485 157.709C126.423 158.775 127.874 159.309 129.837 159.309C130.071 159.309 130.466 159.287 131.021 159.245C131.255 159.223 131.543 159.159 131.885 159.053C132.226 158.946 132.471 158.871 132.621 158.829C133.538 158.509 134.21 158.349 134.637 158.349C134.957 158.349 135.202 158.434 135.373 158.605C134.839 159.415 134.039 160.013 132.973 160.397C131.927 160.759 130.893 160.941 129.869 160.941ZM142.164 160.973C141.546 160.973 140.735 160.055 139.732 158.221C138.751 156.365 137.61 154.018 136.308 151.181L135.38 149.197C135.38 148.983 135.508 148.781 135.764 148.589C136.02 148.375 136.404 148.279 136.916 148.301C137.044 148.535 137.45 149.399 138.132 150.893C138.943 152.642 139.626 154.082 140.18 155.213C140.756 156.322 141.45 157.517 142.26 158.797C142.623 157.474 143.028 156.237 143.476 155.085C143.946 153.911 144.639 152.258 145.556 150.125L146.036 149.005C146.164 148.749 146.41 148.621 146.772 148.621C147.028 148.621 147.252 148.685 147.444 148.813C147.636 148.941 147.732 149.122 147.732 149.357C147.732 149.57 147.626 149.794 147.412 150.029C147.263 150.178 147.05 150.615 146.772 151.341C146.495 152.045 146.207 152.834 145.908 153.709C145.098 156.013 144.394 157.815 143.796 159.117C143.199 160.397 142.655 161.015 142.164 160.973ZM157.525 160.941C156.16 160.941 154.901 160.674 153.749 160.141C152.597 159.607 151.68 158.85 150.997 157.869C150.314 156.887 149.973 155.757 149.973 154.477C149.973 153.047 150.24 151.714 150.773 150.477C151.306 149.218 152.085 148.215 153.109 147.469C154.154 146.701 155.37 146.317 156.757 146.317C158.208 146.317 159.306 146.786 160.053 147.725C160.8 148.642 161.152 149.805 161.109 151.213C161.109 152.471 160.608 153.431 159.605 154.093C158.624 154.754 157.365 155.085 155.829 155.085C155.594 155.085 155.242 155.063 154.773 155.021C154.005 154.935 153.461 154.818 153.141 154.669C152.821 154.519 152.661 154.221 152.661 153.773C152.661 153.623 152.704 153.517 152.789 153.453C152.874 153.367 153.045 153.325 153.301 153.325C153.578 153.325 154.069 153.389 154.773 153.517C155.456 153.645 156.064 153.709 156.597 153.709C158.56 153.709 159.541 152.855 159.541 151.149C159.541 150.125 159.349 149.314 158.965 148.717C158.602 148.119 157.952 147.821 157.013 147.821C155.989 147.821 155.072 148.098 154.261 148.653C153.45 149.186 152.821 149.89 152.373 150.765C151.946 151.639 151.733 152.567 151.733 153.549C151.733 155.234 152.202 156.621 153.141 157.709C154.08 158.775 155.53 159.309 157.493 159.309C157.728 159.309 158.122 159.287 158.677 159.245C158.912 159.223 159.2 159.159 159.541 159.053C159.882 158.946 160.128 158.871 160.277 158.829C161.194 158.509 161.866 158.349 162.293 158.349C162.613 158.349 162.858 158.434 163.029 158.605C162.496 159.415 161.696 160.013 160.629 160.397C159.584 160.759 158.549 160.941 157.525 160.941ZM166.077 160.717C165.607 158.391 165.245 155.639 164.989 152.461C164.754 149.261 164.637 146.167 164.637 143.181C164.637 141.687 164.669 140.365 164.733 139.213C164.733 138.935 164.946 138.797 165.373 138.797C165.714 138.797 165.927 138.882 166.013 139.053C166.119 139.223 166.173 139.49 166.173 139.853C166.173 143.309 166.237 146.263 166.365 148.717C166.493 151.149 166.663 153.773 166.877 156.589C167.005 158.402 167.09 159.629 167.133 160.269C167.154 160.61 166.973 160.781 166.589 160.781C166.461 160.781 166.29 160.759 166.077 160.717ZM176.316 160.973C175.057 160.973 173.916 160.695 172.892 160.141C171.889 159.565 171.1 158.775 170.524 157.773C169.969 156.749 169.692 155.586 169.692 154.285C169.692 152.151 170.47 150.562 172.028 149.517C173.606 148.471 175.537 147.949 177.82 147.949C178.865 147.949 179.836 148.205 180.732 148.717C181.649 149.229 182.385 149.965 182.94 150.925C183.494 151.885 183.772 152.994 183.772 154.253C183.772 155.618 183.42 156.813 182.716 157.837C182.012 158.839 181.084 159.618 179.932 160.173C178.801 160.706 177.596 160.973 176.316 160.973ZM175.964 159.149C177.948 159.149 179.452 158.701 180.476 157.805C181.5 156.909 182.012 155.597 182.012 153.869C182.012 152.695 181.606 151.682 180.796 150.829C180.006 149.975 178.897 149.549 177.468 149.549C176.508 149.549 175.537 149.73 174.556 150.093C173.574 150.455 172.764 150.999 172.124 151.725C171.484 152.45 171.164 153.325 171.164 154.349C171.164 155.202 171.377 156.002 171.804 156.749C172.23 157.474 172.806 158.061 173.532 158.509C174.278 158.935 175.089 159.149 175.964 159.149ZM190.093 172.333C189.666 172.333 189.154 171.191 188.557 168.909C187.981 166.626 187.458 164.087 186.989 161.293C186.541 158.519 186.317 156.77 186.317 156.045C186.317 153.89 187.042 152.322 188.493 151.341C189.943 150.338 191.81 149.837 194.093 149.837C195.309 149.837 196.461 150.093 197.549 150.605C198.637 151.095 199.511 151.81 200.173 152.749C200.834 153.666 201.165 154.733 201.165 155.949C201.165 157.463 200.631 158.53 199.565 159.149C198.519 159.767 197.197 160.077 195.597 160.077C193.933 160.077 192.514 159.799 191.341 159.245C190.189 158.669 189.613 157.89 189.613 156.909L189.645 156.589C189.794 156.418 189.954 156.333 190.125 156.333C190.274 156.333 190.434 156.397 190.605 156.525C190.797 156.631 190.999 156.759 191.213 156.909C191.874 157.399 192.525 157.794 193.165 158.093C193.826 158.391 194.647 158.541 195.629 158.541C196.973 158.541 197.922 158.306 198.477 157.837C199.053 157.346 199.341 156.578 199.341 155.533C199.341 154.765 199.085 154.082 198.573 153.485C198.061 152.887 197.399 152.429 196.589 152.109C195.778 151.789 194.946 151.629 194.093 151.629C192.109 151.629 190.615 152.055 189.613 152.909C188.61 153.741 188.162 155.138 188.269 157.101C188.461 160.429 188.759 163.223 189.165 165.485C189.591 167.746 190.327 169.666 191.373 171.245L191.405 171.309C191.405 171.351 191.351 171.394 191.245 171.437C191.159 171.501 191.095 171.554 191.053 171.597C190.797 172.002 190.477 172.247 190.093 172.333ZM211.275 160.941C209.91 160.941 208.651 160.674 207.499 160.141C206.347 159.607 205.43 158.85 204.747 157.869C204.064 156.887 203.723 155.757 203.723 154.477C203.723 153.047 203.99 151.714 204.523 150.477C205.056 149.218 205.835 148.215 206.859 147.469C207.904 146.701 209.12 146.317 210.507 146.317C211.958 146.317 213.056 146.786 213.803 147.725C214.55 148.642 214.902 149.805 214.859 151.213C214.859 152.471 214.358 153.431 213.355 154.093C212.374 154.754 211.115 155.085 209.579 155.085C209.344 155.085 208.992 155.063 208.523 155.021C207.755 154.935 207.211 154.818 206.891 154.669C206.571 154.519 206.411 154.221 206.411 153.773C206.411 153.623 206.454 153.517 206.539 153.453C206.624 153.367 206.795 153.325 207.051 153.325C207.328 153.325 207.819 153.389 208.523 153.517C209.206 153.645 209.814 153.709 210.347 153.709C212.31 153.709 213.291 152.855 213.291 151.149C213.291 150.125 213.099 149.314 212.715 148.717C212.352 148.119 211.702 147.821 210.763 147.821C209.739 147.821 208.822 148.098 208.011 148.653C207.2 149.186 206.571 149.89 206.123 150.765C205.696 151.639 205.483 152.567 205.483 153.549C205.483 155.234 205.952 156.621 206.891 157.709C207.83 158.775 209.28 159.309 211.243 159.309C211.478 159.309 211.872 159.287 212.427 159.245C212.662 159.223 212.95 159.159 213.291 159.053C213.632 158.946 213.878 158.871 214.027 158.829C214.944 158.509 215.616 158.349 216.043 158.349C216.363 158.349 216.608 158.434 216.779 158.605C216.246 159.415 215.446 160.013 214.379 160.397C213.334 160.759 212.299 160.941 211.275 160.941ZM220.883 160.941C220.008 159.234 219.315 157.229 218.803 154.925C218.312 152.621 218.067 150.626 218.067 148.941C218.067 148.279 218.216 147.853 218.515 147.661C218.685 147.554 218.813 147.501 218.899 147.501C219.048 147.501 219.155 147.618 219.219 147.853C219.304 148.087 219.389 148.514 219.475 149.133L219.635 150.285C219.869 149.133 220.317 148.226 220.979 147.565C221.661 146.882 222.493 146.541 223.475 146.541C224.563 146.541 225.373 146.754 225.907 147.181C226.44 147.586 226.707 148.269 226.707 149.229C225.64 148.717 224.669 148.461 223.795 148.461C222.963 148.461 222.248 148.685 221.651 149.133C221.053 149.581 220.637 150.242 220.403 151.117C220.211 151.714 220.115 152.279 220.115 152.813C220.115 153.389 220.189 153.933 220.339 154.445C220.509 154.935 220.765 155.543 221.107 156.269C221.427 157.015 221.672 157.655 221.843 158.189C222.035 158.722 222.141 159.298 222.163 159.917C222.163 160.279 222.035 160.546 221.779 160.717C221.523 160.866 221.224 160.941 220.883 160.941ZM238.117 160.973C237.626 160.973 237.232 160.258 236.933 158.829C236.634 157.378 236.442 156.13 236.357 155.085C236.272 154.039 236.154 152.386 236.005 150.125C235.984 149.762 235.973 149.293 235.973 148.717C235.973 147.991 236.026 147.49 236.133 147.213C236.261 146.935 236.464 146.797 236.741 146.797C236.976 146.797 237.157 146.85 237.285 146.957C237.434 147.042 237.562 147.191 237.669 147.405L237.637 148.685C237.637 150.05 237.701 151.341 237.829 152.557C237.978 153.773 238.202 155.405 238.501 157.453C238.672 158.349 238.789 159.085 238.853 159.661C238.896 159.959 238.842 160.258 238.693 160.557C238.544 160.834 238.352 160.973 238.117 160.973ZM237.317 143.373C236.848 143.373 236.496 143.191 236.261 142.829C236.048 142.466 235.941 142.018 235.941 141.485C235.941 141.25 235.952 141.079 235.973 140.973C235.952 140.631 236.144 140.461 236.549 140.461C236.848 140.461 237.146 140.535 237.445 140.685C237.765 140.813 237.861 140.909 237.733 140.973C237.946 141.527 238.053 141.965 238.053 142.285C238.053 142.562 237.989 142.786 237.861 142.957C237.733 143.106 237.552 143.245 237.317 143.373ZM241.883 157.165C242.182 156.93 242.47 156.813 242.747 156.813C243.003 156.813 243.248 156.887 243.483 157.037C243.739 157.186 243.995 157.378 244.251 157.613C244.507 157.826 244.71 157.986 244.859 158.093C245.35 158.477 246.022 158.775 246.875 158.989C247.728 159.202 248.635 159.309 249.595 159.309C250.683 159.309 251.654 159.106 252.507 158.701C253.382 158.274 253.819 157.709 253.819 157.005C253.819 156.365 253.584 155.863 253.115 155.501C252.646 155.117 252.08 154.839 251.419 154.669C250.758 154.498 249.883 154.338 248.795 154.189C247.323 154.018 246.15 153.805 245.275 153.549C244.422 153.293 243.739 152.877 243.227 152.301C242.715 151.703 242.459 150.871 242.459 149.805C242.459 148.653 243.003 147.799 244.091 147.245C245.179 146.669 246.427 146.381 247.835 146.381C249.115 146.381 250.203 146.658 251.099 147.213C252.016 147.746 252.486 148.514 252.507 149.517C252.55 150.093 252.464 150.551 252.251 150.893C252.038 151.213 251.782 151.373 251.483 151.373C251.312 151.373 251.163 151.309 251.035 151.181C250.928 151.053 250.875 150.882 250.875 150.669C250.875 150.327 250.992 149.954 251.227 149.549C251.12 149.037 250.768 148.653 250.171 148.397C249.595 148.141 248.902 148.013 248.091 148.013C246.896 148.013 245.947 148.237 245.243 148.685C244.539 149.111 244.187 149.623 244.187 150.221C244.187 150.861 244.443 151.351 244.955 151.693C245.467 152.034 246.086 152.279 246.811 152.429C247.558 152.557 248.614 152.685 249.979 152.813C251.11 152.962 252.027 153.143 252.731 153.357C253.456 153.57 254.064 153.986 254.555 154.605C255.046 155.202 255.291 156.066 255.291 157.197C255.291 158.37 254.747 159.298 253.659 159.981C252.571 160.642 251.27 160.973 249.755 160.973C247.814 160.973 246.075 160.642 244.539 159.981C243.024 159.319 242.139 158.381 241.883 157.165ZM272.628 160.973C271.369 160.973 270.228 160.695 269.204 160.141C268.201 159.565 267.412 158.775 266.836 157.773C266.281 156.749 266.004 155.586 266.004 154.285C266.004 152.151 266.783 150.562 268.34 149.517C269.919 148.471 271.849 147.949 274.132 147.949C275.177 147.949 276.148 148.205 277.044 148.717C277.961 149.229 278.697 149.965 279.252 150.925C279.807 151.885 280.084 152.994 280.084 154.253C280.084 155.618 279.732 156.813 279.028 157.837C278.324 158.839 277.396 159.618 276.244 160.173C275.113 160.706 273.908 160.973 272.628 160.973ZM272.276 159.149C274.26 159.149 275.764 158.701 276.788 157.805C277.812 156.909 278.324 155.597 278.324 153.869C278.324 152.695 277.919 151.682 277.108 150.829C276.319 149.975 275.209 149.549 273.78 149.549C272.82 149.549 271.849 149.73 270.868 150.093C269.887 150.455 269.076 150.999 268.436 151.725C267.796 152.45 267.476 153.325 267.476 154.349C267.476 155.202 267.689 156.002 268.116 156.749C268.543 157.474 269.119 158.061 269.844 158.509C270.591 158.935 271.401 159.149 272.276 159.149ZM286.405 172.333C285.978 172.333 285.466 171.191 284.869 168.909C284.293 166.626 283.77 164.087 283.301 161.293C282.853 158.519 282.629 156.77 282.629 156.045C282.629 153.89 283.354 152.322 284.805 151.341C286.256 150.338 288.122 149.837 290.405 149.837C291.621 149.837 292.773 150.093 293.861 150.605C294.949 151.095 295.824 151.81 296.485 152.749C297.146 153.666 297.477 154.733 297.477 155.949C297.477 157.463 296.944 158.53 295.877 159.149C294.832 159.767 293.509 160.077 291.909 160.077C290.245 160.077 288.826 159.799 287.653 159.245C286.501 158.669 285.925 157.89 285.925 156.909L285.957 156.589C286.106 156.418 286.266 156.333 286.437 156.333C286.586 156.333 286.746 156.397 286.917 156.525C287.109 156.631 287.312 156.759 287.525 156.909C288.186 157.399 288.837 157.794 289.477 158.093C290.138 158.391 290.96 158.541 291.941 158.541C293.285 158.541 294.234 158.306 294.789 157.837C295.365 157.346 295.653 156.578 295.653 155.533C295.653 154.765 295.397 154.082 294.885 153.485C294.373 152.887 293.712 152.429 292.901 152.109C292.09 151.789 291.258 151.629 290.405 151.629C288.421 151.629 286.928 152.055 285.925 152.909C284.922 153.741 284.474 155.138 284.581 157.101C284.773 160.429 285.072 163.223 285.477 165.485C285.904 167.746 286.64 169.666 287.685 171.245L287.717 171.309C287.717 171.351 287.664 171.394 287.557 171.437C287.472 171.501 287.408 171.554 287.365 171.597C287.109 172.002 286.789 172.247 286.405 172.333ZM307.587 160.941C306.222 160.941 304.963 160.674 303.811 160.141C302.659 159.607 301.742 158.85 301.059 157.869C300.377 156.887 300.035 155.757 300.035 154.477C300.035 153.047 300.302 151.714 300.835 150.477C301.369 149.218 302.147 148.215 303.171 147.469C304.217 146.701 305.433 146.317 306.819 146.317C308.27 146.317 309.369 146.786 310.115 147.725C310.862 148.642 311.214 149.805 311.171 151.213C311.171 152.471 310.67 153.431 309.667 154.093C308.686 154.754 307.427 155.085 305.891 155.085C305.657 155.085 305.305 155.063 304.835 155.021C304.067 154.935 303.523 154.818 303.203 154.669C302.883 154.519 302.723 154.221 302.723 153.773C302.723 153.623 302.766 153.517 302.851 153.453C302.937 153.367 303.107 153.325 303.363 153.325C303.641 153.325 304.131 153.389 304.835 153.517C305.518 153.645 306.126 153.709 306.659 153.709C308.622 153.709 309.603 152.855 309.603 151.149C309.603 150.125 309.411 149.314 309.027 148.717C308.665 148.119 308.014 147.821 307.075 147.821C306.051 147.821 305.134 148.098 304.323 148.653C303.513 149.186 302.883 149.89 302.435 150.765C302.009 151.639 301.795 152.567 301.795 153.549C301.795 155.234 302.265 156.621 303.203 157.709C304.142 158.775 305.593 159.309 307.555 159.309C307.79 159.309 308.185 159.287 308.739 159.245C308.974 159.223 309.262 159.159 309.603 159.053C309.945 158.946 310.19 158.871 310.339 158.829C311.257 158.509 311.929 158.349 312.355 158.349C312.675 158.349 312.921 158.434 313.091 158.605C312.558 159.415 311.758 160.013 310.691 160.397C309.646 160.759 308.611 160.941 307.587 160.941ZM317.419 161.069C317.12 161.154 316.95 161.197 316.907 161.197C316.736 161.197 316.555 161.111 316.363 160.941C315.659 159.895 315.147 158.071 314.827 155.469C314.528 152.866 314.379 150.626 314.379 148.749C314.379 148.45 314.592 148.301 315.019 148.301C315.659 148.301 315.979 148.653 315.979 149.357C315.979 149.549 315.968 149.709 315.947 149.837C316.139 149.389 316.502 148.93 317.035 148.461C317.568 147.991 318.187 147.597 318.891 147.277C319.595 146.957 320.31 146.797 321.035 146.797C323.318 146.797 324.982 147.81 326.027 149.837C327.072 151.842 327.595 154.338 327.595 157.325C327.595 158.349 327.488 159.17 327.275 159.789C327.062 160.386 326.774 160.685 326.411 160.685C326.027 160.685 325.835 160.567 325.835 160.333C325.984 159.202 326.059 158.093 326.059 157.005C326.059 154.253 325.579 152.173 324.619 150.765C323.659 149.335 322.39 148.621 320.811 148.621C320.043 148.621 319.296 148.813 318.571 149.197C317.867 149.581 317.291 150.114 316.843 150.797C316.416 151.479 316.203 152.258 316.203 153.133C316.203 154.114 316.256 154.967 316.363 155.693C316.47 156.418 316.64 157.293 316.875 158.317C317.131 159.319 317.312 160.237 317.419 161.069ZM78.548 185.413C79.508 185.413 80.4253 185.658 81.3 186.149C82.1747 186.618 82.8787 187.226 83.412 187.973C83.9667 188.719 84.244 189.466 84.244 190.213H83.54C83.22 190.213 82.932 190.117 82.676 189.925C82.4413 189.733 82.132 189.423 81.748 188.997C81.1933 188.399 80.692 187.951 80.244 187.653C79.8173 187.354 79.2627 187.205 78.58 187.205C77.4067 187.205 76.4253 187.749 75.636 188.837C74.8467 189.903 74.3773 191.162 74.228 192.613C74.164 193.274 74.132 193.935 74.132 194.597C74.132 195.685 74.2067 196.687 74.356 197.605C74.6333 197.647 75.284 197.701 76.308 197.765C77.332 197.829 78.1747 197.882 78.836 197.925C79.0707 197.925 79.5293 197.946 80.212 197.989C80.4253 197.989 80.5747 198.042 80.66 198.149C80.7667 198.234 80.82 198.394 80.82 198.629C80.82 199.205 80.1693 199.493 78.868 199.493C77.7373 199.493 76.3187 199.29 74.612 198.885C74.8467 199.845 75.1453 200.73 75.508 201.541C75.8707 202.33 76.34 203.279 76.916 204.389C77.3213 205.178 77.62 205.797 77.812 206.245C78.004 206.671 78.1 207.034 78.1 207.333C78.1 207.567 78.0253 207.738 77.876 207.845C77.7267 207.93 77.5133 207.973 77.236 207.973C76.66 207.973 76.116 207.365 75.604 206.149C75.1133 204.911 74.548 203.205 73.908 201.029L73.332 199.141C72.8627 199.183 72.276 199.311 71.572 199.525C71.508 199.546 71.284 199.61 70.9 199.717C70.5373 199.802 70.2067 199.845 69.908 199.845C69.5667 199.845 69.396 199.642 69.396 199.237C69.396 198.703 69.6733 198.351 70.228 198.181C70.7827 197.989 71.3053 197.882 71.796 197.861C72.2867 197.818 72.596 197.786 72.724 197.765C72.6813 196.954 72.66 196.229 72.66 195.589C72.66 192.837 73.076 190.458 73.908 188.453C74.7613 186.426 76.308 185.413 78.548 185.413ZM90.2375 207.973C88.9788 207.973 87.8375 207.695 86.8135 207.141C85.8108 206.565 85.0215 205.775 84.4455 204.773C83.8908 203.749 83.6135 202.586 83.6135 201.285C83.6135 199.151 84.3922 197.562 85.9495 196.517C87.5282 195.471 89.4588 194.949 91.7415 194.949C92.7868 194.949 93.7575 195.205 94.6535 195.717C95.5708 196.229 96.3068 196.965 96.8615 197.925C97.4162 198.885 97.6935 199.994 97.6935 201.253C97.6935 202.618 97.3415 203.813 96.6375 204.837C95.9335 205.839 95.0055 206.618 93.8535 207.173C92.7228 207.706 91.5175 207.973 90.2375 207.973ZM89.8855 206.149C91.8695 206.149 93.3735 205.701 94.3975 204.805C95.4215 203.909 95.9335 202.597 95.9335 200.869C95.9335 199.695 95.5282 198.682 94.7175 197.829C93.9282 196.975 92.8188 196.549 91.3895 196.549C90.4295 196.549 89.4588 196.73 88.4775 197.093C87.4962 197.455 86.6855 197.999 86.0455 198.725C85.4055 199.45 85.0855 200.325 85.0855 201.349C85.0855 202.202 85.2988 203.002 85.7255 203.749C86.1522 204.474 86.7282 205.061 87.4535 205.509C88.2002 205.935 89.0108 206.149 89.8855 206.149ZM103.055 207.941C102.18 206.234 101.487 204.229 100.975 201.925C100.484 199.621 100.239 197.626 100.239 195.941C100.239 195.279 100.388 194.853 100.687 194.661C100.857 194.554 100.985 194.501 101.071 194.501C101.22 194.501 101.327 194.618 101.391 194.853C101.476 195.087 101.561 195.514 101.647 196.133L101.807 197.285C102.041 196.133 102.489 195.226 103.151 194.565C103.833 193.882 104.665 193.541 105.647 193.541C106.735 193.541 107.545 193.754 108.079 194.181C108.612 194.586 108.879 195.269 108.879 196.229C107.812 195.717 106.841 195.461 105.967 195.461C105.135 195.461 104.42 195.685 103.823 196.133C103.225 196.581 102.809 197.242 102.575 198.117C102.383 198.714 102.287 199.279 102.287 199.813C102.287 200.389 102.361 200.933 102.511 201.445C102.681 201.935 102.937 202.543 103.279 203.269C103.599 204.015 103.844 204.655 104.015 205.189C104.207 205.722 104.313 206.298 104.335 206.917C104.335 207.279 104.207 207.546 103.951 207.717C103.695 207.866 103.396 207.941 103.055 207.941ZM124.769 207.973C123.51 207.973 122.369 207.695 121.345 207.141C120.342 206.565 119.553 205.775 118.977 204.773C118.422 203.749 118.145 202.586 118.145 201.285C118.145 199.151 118.923 197.562 120.481 196.517C122.059 195.471 123.99 194.949 126.273 194.949C127.318 194.949 128.289 195.205 129.185 195.717C130.102 196.229 130.838 196.965 131.393 197.925C131.947 198.885 132.225 199.994 132.225 201.253C132.225 202.618 131.873 203.813 131.169 204.837C130.465 205.839 129.537 206.618 128.385 207.173C127.254 207.706 126.049 207.973 124.769 207.973ZM124.417 206.149C126.401 206.149 127.905 205.701 128.929 204.805C129.953 203.909 130.465 202.597 130.465 200.869C130.465 199.695 130.059 198.682 129.249 197.829C128.459 196.975 127.35 196.549 125.921 196.549C124.961 196.549 123.99 196.73 123.009 197.093C122.027 197.455 121.217 197.999 120.577 198.725C119.937 199.45 119.617 200.325 119.617 201.349C119.617 202.202 119.83 203.002 120.257 203.749C120.683 204.474 121.259 205.061 121.985 205.509C122.731 205.935 123.542 206.149 124.417 206.149ZM138.546 219.333C138.119 219.333 137.607 218.191 137.01 215.909C136.434 213.626 135.911 211.087 135.442 208.293C134.994 205.519 134.77 203.77 134.77 203.045C134.77 200.89 135.495 199.322 136.946 198.341C138.396 197.338 140.263 196.837 142.546 196.837C143.762 196.837 144.914 197.093 146.002 197.605C147.09 198.095 147.964 198.81 148.626 199.749C149.287 200.666 149.618 201.733 149.618 202.949C149.618 204.463 149.084 205.53 148.018 206.149C146.972 206.767 145.65 207.077 144.05 207.077C142.386 207.077 140.967 206.799 139.794 206.245C138.642 205.669 138.066 204.89 138.066 203.909L138.098 203.589C138.247 203.418 138.407 203.333 138.578 203.333C138.727 203.333 138.887 203.397 139.058 203.525C139.25 203.631 139.452 203.759 139.666 203.909C140.327 204.399 140.978 204.794 141.618 205.093C142.279 205.391 143.1 205.541 144.082 205.541C145.426 205.541 146.375 205.306 146.93 204.837C147.506 204.346 147.794 203.578 147.794 202.533C147.794 201.765 147.538 201.082 147.026 200.485C146.514 199.887 145.852 199.429 145.042 199.109C144.231 198.789 143.399 198.629 142.546 198.629C140.562 198.629 139.068 199.055 138.066 199.909C137.063 200.741 136.615 202.138 136.722 204.101C136.914 207.429 137.212 210.223 137.618 212.485C138.044 214.746 138.78 216.666 139.826 218.245L139.858 218.309C139.858 218.351 139.804 218.394 139.698 218.437C139.612 218.501 139.548 218.554 139.506 218.597C139.25 219.002 138.93 219.247 138.546 219.333ZM155.952 219.333C155.525 219.333 155.013 218.191 154.416 215.909C153.84 213.626 153.317 211.087 152.848 208.293C152.4 205.519 152.176 203.77 152.176 203.045C152.176 200.89 152.901 199.322 154.352 198.341C155.803 197.338 157.669 196.837 159.952 196.837C161.168 196.837 162.32 197.093 163.408 197.605C164.496 198.095 165.371 198.81 166.032 199.749C166.693 200.666 167.024 201.733 167.024 202.949C167.024 204.463 166.491 205.53 165.424 206.149C164.379 206.767 163.056 207.077 161.456 207.077C159.792 207.077 158.373 206.799 157.2 206.245C156.048 205.669 155.472 204.89 155.472 203.909L155.504 203.589C155.653 203.418 155.813 203.333 155.984 203.333C156.133 203.333 156.293 203.397 156.464 203.525C156.656 203.631 156.859 203.759 157.072 203.909C157.733 204.399 158.384 204.794 159.024 205.093C159.685 205.391 160.507 205.541 161.488 205.541C162.832 205.541 163.781 205.306 164.336 204.837C164.912 204.346 165.2 203.578 165.2 202.533C165.2 201.765 164.944 201.082 164.432 200.485C163.92 199.887 163.259 199.429 162.448 199.109C161.637 198.789 160.805 198.629 159.952 198.629C157.968 198.629 156.475 199.055 155.472 199.909C154.469 200.741 154.021 202.138 154.128 204.101C154.32 207.429 154.619 210.223 155.024 212.485C155.451 214.746 156.187 216.666 157.232 218.245L157.264 218.309C157.264 218.351 157.211 218.394 157.104 218.437C157.019 218.501 156.955 218.554 156.912 218.597C156.656 219.002 156.336 219.247 155.952 219.333ZM176.206 207.973C174.948 207.973 173.806 207.695 172.782 207.141C171.78 206.565 170.99 205.775 170.414 204.773C169.86 203.749 169.582 202.586 169.582 201.285C169.582 199.151 170.361 197.562 171.918 196.517C173.497 195.471 175.428 194.949 177.71 194.949C178.756 194.949 179.726 195.205 180.622 195.717C181.54 196.229 182.276 196.965 182.83 197.925C183.385 198.885 183.662 199.994 183.662 201.253C183.662 202.618 183.31 203.813 182.606 204.837C181.902 205.839 180.974 206.618 179.822 207.173C178.692 207.706 177.486 207.973 176.206 207.973ZM175.854 206.149C177.838 206.149 179.342 205.701 180.366 204.805C181.39 203.909 181.902 202.597 181.902 200.869C181.902 199.695 181.497 198.682 180.686 197.829C179.897 196.975 178.788 196.549 177.358 196.549C176.398 196.549 175.428 196.73 174.446 197.093C173.465 197.455 172.654 197.999 172.014 198.725C171.374 199.45 171.054 200.325 171.054 201.349C171.054 202.202 171.268 203.002 171.694 203.749C172.121 204.474 172.697 205.061 173.422 205.509C174.169 205.935 174.98 206.149 175.854 206.149ZM189.023 207.941C188.149 206.234 187.455 204.229 186.943 201.925C186.453 199.621 186.207 197.626 186.207 195.941C186.207 195.279 186.357 194.853 186.655 194.661C186.826 194.554 186.954 194.501 187.039 194.501C187.189 194.501 187.295 194.618 187.359 194.853C187.445 195.087 187.53 195.514 187.615 196.133L187.775 197.285C188.01 196.133 188.458 195.226 189.119 194.565C189.802 193.882 190.634 193.541 191.615 193.541C192.703 193.541 193.514 193.754 194.047 194.181C194.581 194.586 194.847 195.269 194.847 196.229C193.781 195.717 192.81 195.461 191.935 195.461C191.103 195.461 190.389 195.685 189.791 196.133C189.194 196.581 188.778 197.242 188.543 198.117C188.351 198.714 188.255 199.279 188.255 199.813C188.255 200.389 188.33 200.933 188.479 201.445C188.65 201.935 188.906 202.543 189.247 203.269C189.567 204.015 189.813 204.655 189.983 205.189C190.175 205.722 190.282 206.298 190.303 206.917C190.303 207.279 190.175 207.546 189.919 207.717C189.663 207.866 189.365 207.941 189.023 207.941ZM201.266 207.941C201.052 207.983 200.914 208.005 200.85 208.005C200.188 208.005 199.73 207.514 199.474 206.533C199.239 205.551 199.122 204.175 199.122 202.405C199.122 201.679 199.143 200.549 199.186 199.013C199.228 198.074 199.25 197.37 199.25 196.901C196.626 196.901 195.314 196.602 195.314 196.005C195.314 195.813 195.335 195.663 195.378 195.557C195.442 195.45 195.57 195.397 195.762 195.397L199.25 195.173C199.228 194.127 199.175 192.986 199.09 191.749C199.004 190.639 198.951 189.615 198.93 188.677C198.93 188.442 199.026 188.282 199.218 188.197C199.41 188.09 199.612 188.037 199.826 188.037C200.082 188.037 200.295 188.175 200.466 188.453C200.636 188.709 200.722 188.975 200.722 189.253L200.946 195.109L203.602 195.237C204.007 195.194 204.348 195.269 204.626 195.461C204.924 195.653 205.084 195.973 205.106 196.421C204.658 196.613 204.167 196.73 203.634 196.773C203.1 196.815 202.204 196.837 200.946 196.837C200.946 198.821 201.042 202.085 201.234 206.629C201.234 207.098 201.234 207.429 201.234 207.621C201.255 207.791 201.266 207.898 201.266 207.941ZM221.584 207.781C221.2 207.781 220.89 207.621 220.656 207.301C220.442 206.959 220.25 206.447 220.08 205.765C219.909 205.061 219.642 203.845 219.28 202.117C218.917 203.546 218.234 204.687 217.232 205.541C216.229 206.373 215.002 206.789 213.552 206.789C212.229 206.789 211.109 206.33 210.192 205.413C209.296 204.474 208.624 203.247 208.176 201.733C207.728 200.197 207.504 198.543 207.504 196.773C207.504 195.962 207.578 195.269 207.728 194.693C207.898 194.095 208.101 193.647 208.336 193.349C208.592 193.05 208.837 192.911 209.072 192.933C209.328 192.933 209.456 193.103 209.456 193.445C209.456 193.722 209.381 194.159 209.232 194.757C209.082 195.418 209.008 196.175 209.008 197.029C209.008 198.309 209.189 199.557 209.552 200.773C209.936 201.989 210.49 202.991 211.216 203.781C211.962 204.549 212.837 204.933 213.84 204.933C214.672 204.933 215.429 204.687 216.112 204.197C216.794 203.706 217.328 203.087 217.712 202.341C218.117 201.594 218.32 200.858 218.32 200.133V195.045C218.554 194.597 218.874 194.373 219.28 194.373C219.642 194.373 219.888 194.682 220.016 195.301C220.144 195.919 220.208 196.794 220.208 197.925C220.208 198.885 220.197 199.621 220.176 200.133C220.304 200.837 220.496 201.551 220.752 202.277C221.029 203.002 221.37 203.823 221.776 204.741C222.266 205.871 222.512 206.565 222.512 206.821C222.512 207.461 222.202 207.781 221.584 207.781ZM228.122 208.069C227.824 208.154 227.653 208.197 227.61 208.197C227.44 208.197 227.258 208.111 227.066 207.941C226.362 206.895 225.85 205.071 225.53 202.469C225.232 199.866 225.082 197.626 225.082 195.749C225.082 195.45 225.296 195.301 225.722 195.301C226.362 195.301 226.682 195.653 226.682 196.357C226.682 196.549 226.672 196.709 226.65 196.837C226.842 196.389 227.205 195.93 227.738 195.461C228.272 194.991 228.89 194.597 229.594 194.277C230.298 193.957 231.013 193.797 231.738 193.797C234.021 193.797 235.685 194.81 236.73 196.837C237.776 198.842 238.298 201.338 238.298 204.325C238.298 205.349 238.192 206.17 237.978 206.789C237.765 207.386 237.477 207.685 237.114 207.685C236.73 207.685 236.538 207.567 236.538 207.333C236.688 206.202 236.762 205.093 236.762 204.005C236.762 201.253 236.282 199.173 235.322 197.765C234.362 196.335 233.093 195.621 231.514 195.621C230.746 195.621 230 195.813 229.274 196.197C228.57 196.581 227.994 197.114 227.546 197.797C227.12 198.479 226.906 199.258 226.906 200.133C226.906 201.114 226.96 201.967 227.066 202.693C227.173 203.418 227.344 204.293 227.578 205.317C227.834 206.319 228.016 207.237 228.122 208.069ZM243.008 207.973C242.517 207.973 242.122 207.258 241.824 205.829C241.525 204.378 241.333 203.13 241.248 202.085C241.162 201.039 241.045 199.386 240.896 197.125C240.874 196.762 240.864 196.293 240.864 195.717C240.864 194.991 240.917 194.49 241.024 194.213C241.152 193.935 241.354 193.797 241.632 193.797C241.866 193.797 242.048 193.85 242.176 193.957C242.325 194.042 242.453 194.191 242.56 194.405L242.528 195.685C242.528 197.05 242.592 198.341 242.72 199.557C242.869 200.773 243.093 202.405 243.392 204.453C243.562 205.349 243.68 206.085 243.744 206.661C243.786 206.959 243.733 207.258 243.584 207.557C243.434 207.834 243.242 207.973 243.008 207.973ZM242.208 190.373C241.738 190.373 241.386 190.191 241.152 189.829C240.938 189.466 240.832 189.018 240.832 188.485C240.832 188.25 240.842 188.079 240.864 187.973C240.842 187.631 241.034 187.461 241.44 187.461C241.738 187.461 242.037 187.535 242.336 187.685C242.656 187.813 242.752 187.909 242.624 187.973C242.837 188.527 242.944 188.965 242.944 189.285C242.944 189.562 242.88 189.786 242.752 189.957C242.624 190.106 242.442 190.245 242.208 190.373ZM251.766 207.941C251.552 207.983 251.414 208.005 251.35 208.005C250.688 208.005 250.23 207.514 249.974 206.533C249.739 205.551 249.622 204.175 249.622 202.405C249.622 201.679 249.643 200.549 249.686 199.013C249.728 198.074 249.75 197.37 249.75 196.901C247.126 196.901 245.814 196.602 245.814 196.005C245.814 195.813 245.835 195.663 245.878 195.557C245.942 195.45 246.07 195.397 246.262 195.397L249.75 195.173C249.728 194.127 249.675 192.986 249.59 191.749C249.504 190.639 249.451 189.615 249.43 188.677C249.43 188.442 249.526 188.282 249.718 188.197C249.91 188.09 250.112 188.037 250.326 188.037C250.582 188.037 250.795 188.175 250.966 188.453C251.136 188.709 251.222 188.975 251.222 189.253L251.446 195.109L254.102 195.237C254.507 195.194 254.848 195.269 255.126 195.461C255.424 195.653 255.584 195.973 255.606 196.421C255.158 196.613 254.667 196.73 254.134 196.773C253.6 196.815 252.704 196.837 251.446 196.837C251.446 198.821 251.542 202.085 251.734 206.629C251.734 207.098 251.734 207.429 251.734 207.621C251.755 207.791 251.766 207.898 251.766 207.941ZM259.508 207.973C259.017 207.973 258.622 207.258 258.324 205.829C258.025 204.378 257.833 203.13 257.748 202.085C257.662 201.039 257.545 199.386 257.396 197.125C257.374 196.762 257.364 196.293 257.364 195.717C257.364 194.991 257.417 194.49 257.524 194.213C257.652 193.935 257.854 193.797 258.132 193.797C258.366 193.797 258.548 193.85 258.676 193.957C258.825 194.042 258.953 194.191 259.06 194.405L259.028 195.685C259.028 197.05 259.092 198.341 259.22 199.557C259.369 200.773 259.593 202.405 259.892 204.453C260.062 205.349 260.18 206.085 260.244 206.661C260.286 206.959 260.233 207.258 260.084 207.557C259.934 207.834 259.742 207.973 259.508 207.973ZM258.708 190.373C258.238 190.373 257.886 190.191 257.652 189.829C257.438 189.466 257.332 189.018 257.332 188.485C257.332 188.25 257.342 188.079 257.364 187.973C257.342 187.631 257.534 187.461 257.94 187.461C258.238 187.461 258.537 187.535 258.836 187.685C259.156 187.813 259.252 187.909 259.124 187.973C259.337 188.527 259.444 188.965 259.444 189.285C259.444 189.562 259.38 189.786 259.252 189.957C259.124 190.106 258.942 190.245 258.708 190.373ZM270.666 207.941C269.3 207.941 268.042 207.674 266.89 207.141C265.738 206.607 264.82 205.85 264.138 204.869C263.455 203.887 263.114 202.757 263.114 201.477C263.114 200.047 263.38 198.714 263.914 197.477C264.447 196.218 265.226 195.215 266.25 194.469C267.295 193.701 268.511 193.317 269.898 193.317C271.348 193.317 272.447 193.786 273.194 194.725C273.94 195.642 274.292 196.805 274.25 198.213C274.25 199.471 273.748 200.431 272.746 201.093C271.764 201.754 270.506 202.085 268.97 202.085C268.735 202.085 268.383 202.063 267.914 202.021C267.146 201.935 266.602 201.818 266.282 201.669C265.962 201.519 265.802 201.221 265.802 200.773C265.802 200.623 265.844 200.517 265.93 200.453C266.015 200.367 266.186 200.325 266.442 200.325C266.719 200.325 267.21 200.389 267.914 200.517C268.596 200.645 269.204 200.709 269.738 200.709C271.7 200.709 272.682 199.855 272.682 198.149C272.682 197.125 272.49 196.314 272.106 195.717C271.743 195.119 271.092 194.821 270.154 194.821C269.13 194.821 268.212 195.098 267.402 195.653C266.591 196.186 265.962 196.89 265.514 197.765C265.087 198.639 264.874 199.567 264.874 200.549C264.874 202.234 265.343 203.621 266.282 204.709C267.22 205.775 268.671 206.309 270.634 206.309C270.868 206.309 271.263 206.287 271.818 206.245C272.052 206.223 272.34 206.159 272.682 206.053C273.023 205.946 273.268 205.871 273.418 205.829C274.335 205.509 275.007 205.349 275.434 205.349C275.754 205.349 275.999 205.434 276.17 205.605C275.636 206.415 274.836 207.013 273.77 207.397C272.724 207.759 271.69 207.941 270.666 207.941ZM277.617 204.165C277.916 203.93 278.204 203.813 278.481 203.813C278.737 203.813 278.983 203.887 279.217 204.037C279.473 204.186 279.729 204.378 279.985 204.613C280.241 204.826 280.444 204.986 280.593 205.093C281.084 205.477 281.756 205.775 282.609 205.989C283.463 206.202 284.369 206.309 285.329 206.309C286.417 206.309 287.388 206.106 288.241 205.701C289.116 205.274 289.553 204.709 289.553 204.005C289.553 203.365 289.319 202.863 288.849 202.501C288.38 202.117 287.815 201.839 287.153 201.669C286.492 201.498 285.617 201.338 284.529 201.189C283.057 201.018 281.884 200.805 281.009 200.549C280.156 200.293 279.473 199.877 278.961 199.301C278.449 198.703 278.193 197.871 278.193 196.805C278.193 195.653 278.737 194.799 279.825 194.245C280.913 193.669 282.161 193.381 283.569 193.381C284.849 193.381 285.937 193.658 286.833 194.213C287.751 194.746 288.22 195.514 288.241 196.517C288.284 197.093 288.199 197.551 287.985 197.893C287.772 198.213 287.516 198.373 287.217 198.373C287.047 198.373 286.897 198.309 286.769 198.181C286.663 198.053 286.609 197.882 286.609 197.669C286.609 197.327 286.727 196.954 286.961 196.549C286.855 196.037 286.503 195.653 285.905 195.397C285.329 195.141 284.636 195.013 283.825 195.013C282.631 195.013 281.681 195.237 280.977 195.685C280.273 196.111 279.921 196.623 279.921 197.221C279.921 197.861 280.177 198.351 280.689 198.693C281.201 199.034 281.82 199.279 282.545 199.429C283.292 199.557 284.348 199.685 285.713 199.813C286.844 199.962 287.761 200.143 288.465 200.357C289.191 200.57 289.799 200.986 290.289 201.605C290.78 202.202 291.025 203.066 291.025 204.197C291.025 205.37 290.481 206.298 289.393 206.981C288.305 207.642 287.004 207.973 285.489 207.973C283.548 207.973 281.809 207.642 280.273 206.981C278.759 206.319 277.873 205.381 277.617 204.165ZM295.786 207.941C295.402 207.941 295.061 207.77 294.762 207.429C294.485 207.066 294.261 206.65 294.09 206.181C293.941 205.69 293.866 205.274 293.866 204.933C293.866 204.25 293.962 203.685 294.154 203.237C294.368 202.767 294.613 202.437 294.89 202.245C295.168 202.031 295.424 201.925 295.658 201.925C296.405 201.925 297.002 202.287 297.45 203.013C297.898 203.717 298.122 204.474 298.122 205.285C298.122 205.605 297.994 205.978 297.738 206.405C297.504 206.831 297.205 207.194 296.842 207.493C296.48 207.791 296.128 207.941 295.786 207.941Z" fill="white"/>
</g>
<defs>
<clipPath id="clip0_43_618">
<rect width="363" height="363" fill="white"/>
</clipPath>
</defs>
</svg>
