<svg width="874" height="778" viewBox="0 0 874 778" fill="none" xmlns="http://www.w3.org/2000/svg">
<path d="M780.872 181.811H701.959V777.464H780.872V181.811Z" fill="black"/>
<path d="M172.913 181H94V776.653H172.913V181Z" fill="black"/>
<path d="M843.92 701H29.8176C19.8608 701 12 688.396 12 672.432V40.5683C12 24.6037 19.8608 12 29.8176 12H844.182C854.139 12 862 24.6037 862 40.5683V672.432C862 688.396 853.877 701 843.92 701Z" fill="#999999"/>
<path d="M823.375 720H50.6248C22.8205 720 0 684.167 0 639.583V80.4167C0 36.25 22.5582 0 50.6248 0H823.375C851.179 0 874 35.8333 874 80.4167V640C873.738 684.167 851.179 720 823.375 720ZM50.6248 36.6667C35.4111 36.6667 23.0828 56.25 23.0828 80.4167V640C23.0828 664.167 35.4111 683.75 50.6248 683.75H823.375C838.589 683.75 850.917 664.167 850.917 640V80.4167C850.917 56.25 838.589 36.6667 823.375 36.6667H50.6248Z" fill="#0B0B0D"/>
</svg>
