<svg width="874" height="856" viewBox="0 0 874 856" fill="none" xmlns="http://www.w3.org/2000/svg">
<path d="M788.872 259.811H709.959V855.464H788.872V259.811Z" fill="black"/>
<path d="M111.947 22.8086H99.1001V89.6622H111.947V22.8086Z" fill="#121520"/>
<path d="M443.069 22.8086H430.223V89.6622H443.069V22.8086Z" fill="#121520"/>
<path d="M774.191 22.8086H761.345V89.6622H774.191V22.8086Z" fill="#121520"/>
<path d="M843.928 519.623H29.3629C19.4004 519.623 11.5352 511.758 11.5352 501.795V107.49C11.5352 97.5274 19.4004 89.6622 29.3629 89.6622H844.19C854.153 89.6622 862.018 97.5274 862.018 107.49V501.795C862.018 511.758 853.891 519.623 843.928 519.623Z" fill="#999999"/>
<path d="M822.955 531.159H50.599C22.8088 531.159 0 508.612 0 480.56V128.726C0 100.936 22.5467 78.127 50.599 78.127H822.955C850.745 78.127 873.554 100.674 873.554 128.726V480.822C873.292 508.612 850.745 531.159 822.955 531.159ZM50.599 101.198C35.3931 101.198 23.071 113.52 23.071 128.726V480.822C23.071 496.028 35.3931 508.35 50.599 508.35H822.955C838.161 508.35 850.483 496.028 850.483 480.822V128.726C850.483 113.52 838.161 101.198 822.955 101.198H50.599Z" fill="#0B0B0D"/>
<path d="M122.172 40.6366H89.1382C89.1382 49.8126 96.4789 57.1534 105.655 57.1534C114.831 57.1534 122.172 49.8126 122.172 40.6366Z" fill="#FCC94D"/>
<path d="M453.294 40.6366H420.26C420.26 49.8126 427.601 57.1534 436.777 57.1534C445.953 57.1534 453.294 49.8126 453.294 40.6366Z" fill="#FCC94D"/>
<path d="M784.415 40.6366H751.382C751.382 49.8126 758.723 57.1534 767.899 57.1534C777.075 57.1534 784.415 49.8126 784.415 40.6366Z" fill="#FCC94D"/>
<path d="M142.883 40.6365H68.4265V7.3408C68.4265 3.40823 71.8347 0 75.7673 0H135.542C139.475 0 142.883 3.40823 142.883 7.3408V40.6365Z" fill="black"/>
<path d="M474.004 40.6365H399.286V7.3408C399.286 3.40823 402.694 0 406.626 0H466.401C470.334 0 473.742 3.40823 473.742 7.3408V40.6365H474.004Z" fill="#030405"/>
<path d="M805.128 40.6365H730.671V7.3408C730.671 3.40823 734.079 0 738.012 0H797.787C801.719 0 805.128 3.40823 805.128 7.3408V40.6365Z" fill="black"/>
</svg>
