<svg width="183" height="183" viewBox="0 0 183 183" fill="none" xmlns="http://www.w3.org/2000/svg">
<g clip-path="url(#clip0_32_10)">
<path d="M104.237 17.727C104.14 17.7255 103.655 17.6797 103.174 17.6222C101.874 17.4901 100.564 17.6703 99.341 18.1535C98.0495 18.6669 96.8654 18.9178 96.1594 18.8361C95.4388 18.7628 94.4681 19.3018 94.3151 19.8682C94.2539 20.0947 94.2764 20.4162 94.3548 20.6199C94.5262 21.018 94.4797 21.3699 94.267 21.2149C94.0846 21.0806 93.8963 21.4186 93.6151 22.4595C93.4622 23.0254 93.3078 23.3725 93.155 23.4891C92.9878 23.614 92.8436 24.0127 92.5389 25.096C92.2424 26.1936 92.1167 26.5238 92.0208 26.4741C91.7731 26.3584 90.9903 29.7052 91.081 30.4465C91.1042 30.586 91.1335 30.8367 91.1586 31.0136C91.2568 31.8172 91.3595 31.7962 89.7764 31.3685C86.2931 30.4275 79.0944 28.0582 77.1074 27.1934C75.1514 26.3488 74.3566 26.1464 71.7708 25.8368C69.1366 25.5258 67.3581 25.0576 60.8535 22.9477C55.6651 21.2668 52.4739 20.3682 51.1019 20.1918C50.2198 20.0872 49.5838 20.0609 46.7336 20.0565C45.6681 20.0478 45.4131 20.0028 44.2071 19.6167C42.4641 19.0606 40.5008 18.1537 38.8187 17.1038C38.0799 16.6496 37.4358 16.2931 37.3752 16.3379C37.329 16.3742 37.0904 16.6739 36.8568 16.999C36.3284 17.7427 35.5347 18.5243 34.3337 19.5113L33.4186 20.248L31.1101 28.7931L31.3489 31.7725C31.694 36.3343 31.6946 37.185 31.2697 38.7579C30.8517 40.2605 30.7492 40.4145 28.7562 42.4019C28.1247 43.0333 27.5201 43.7438 27.4135 43.9586C27.1998 44.4352 27.3195 44.7103 28.1778 45.7557C29.3245 47.1709 29.5845 48.1396 29.1445 49.4538C28.9211 50.1459 28.7633 50.371 27.811 51.4251C27.2218 52.0797 26.7588 52.6707 26.774 52.7482C26.8435 52.9851 28.0085 53.8829 28.6813 54.2225C29.1628 54.4617 29.3387 54.6191 29.3721 54.8098C29.3972 54.9867 29.7039 55.2885 30.3234 55.7351C31.1786 56.3426 31.3617 56.4285 33.1384 56.9935C36.3814 58.0151 41.7127 59.2126 45.2698 59.7001C47.0499 59.9383 49.9625 60.7005 56.4933 62.6232C61.272 64.0233 61.9568 64.1837 68.675 65.3676C71.8584 65.9361 73.1207 66.2043 75.719 66.918C78.7498 67.7368 80.5665 68.2887 81.5845 68.6974L82.0443 68.882L81.2851 71.737C80.8599 73.3106 80.4495 75.0093 80.3829 75.5256C80.3048 76.0389 80.1577 76.8979 80.0479 77.439C79.9494 77.9831 79.8859 78.488 79.9241 78.5709C79.9623 78.6546 79.9353 78.8896 79.8655 79.102C79.8075 79.3168 79.7796 79.6008 79.8023 79.7406C79.8449 79.8976 79.5374 81.26 79.0403 83.1903C78.312 86.0655 78.1978 86.3989 77.9434 86.6217C77.6858 86.856 77.5849 87.2293 76.1813 92.874C75.3483 96.1826 74.697 99.0427 74.7045 99.2392C74.712 99.4355 74.678 99.742 74.6321 99.9118C74.5862 100.082 74.5856 100.263 74.6329 100.313C74.6804 100.362 74.7073 100.576 74.6862 100.789C74.6257 101.732 74.5595 102.515 74.5232 102.785C74.503 102.949 74.4974 103.239 74.5194 103.427C74.5384 103.627 74.5123 103.948 74.4603 104.14C74.4053 104.344 74.3652 104.807 74.3639 105.171C74.374 105.538 74.3272 106.205 74.2759 106.665C74.2276 107.113 74.2055 107.824 74.2206 108.216C74.2627 109.139 73.6698 111.468 73.2712 111.956C72.6862 112.684 72.2592 113.904 71.2484 117.736C70.2855 121.435 70.2604 121.707 70.746 122.919L71.025 123.638L70.5822 125.098C70.3424 125.895 70.0719 126.672 69.9727 126.815C69.6265 127.378 68.4238 131.425 67.3084 135.823C66.4111 139.37 66.0949 140.45 65.9746 140.49C65.8689 140.523 65.7792 140.765 65.6827 141.347C65.5924 141.905 65.4812 142.227 65.345 142.373C65.1911 142.538 64.9679 143.364 64.391 145.904C63.2223 150.992 63.1818 151.188 63.4051 151.394C63.539 151.527 63.5559 151.69 63.4673 152.018C63.3602 152.414 63.311 152.462 63.0243 152.445C62.834 152.43 62.496 152.423 62.2546 152.419C61.635 152.421 56.4812 151.017 56.0377 150.727C55.841 150.601 55.5189 150.356 55.3265 150.171C55.067 149.918 54.8499 149.823 54.5519 149.804C54.2345 149.766 54.0514 149.68 53.8176 149.423C53.5445 149.131 53.3162 149.032 52.3097 148.761L51.1337 148.443L50.3516 148.912C49.4434 149.444 49.0296 149.538 48.2165 149.403C47.9052 149.344 47.3717 149.297 47.0337 149.29C46.6474 149.283 45.2155 148.969 42.9815 148.39C39.9527 147.608 39.5147 147.478 39.388 147.273C39.3024 147.141 38.9483 146.924 38.5956 146.792C38.2317 146.657 37.8777 146.44 37.789 146.319C37.7034 146.187 37.4679 146.026 37.2559 145.957C36.9599 145.84 36.8057 145.872 36.5094 146.071C36.2991 146.22 36.067 146.316 35.9651 146.288C35.8747 146.264 35.7606 146.281 35.7001 146.326C35.6478 146.384 35.5226 146.399 35.4065 146.38C34.5686 146.202 32.9509 145.947 32.6498 145.939C32.4566 145.935 32.1454 146.009 31.9761 146.097C31.8066 146.185 31.6075 146.204 31.5262 146.145C31.4448 146.087 31.0944 146.126 30.7403 146.224C30.1519 146.381 29.3316 146.318 29.3867 146.114C29.4601 145.842 27.6287 145.165 24.1721 144.171C22.8324 143.784 22.5922 143.865 22.3414 144.793L22.1886 145.359L20.8427 144.996C19.7459 144.699 19.4075 144.559 19.0266 144.262C18.6376 143.951 18.3076 143.825 16.9845 143.467L15.4124 143.043L15.1983 143.835L11.7492 142.903C8.58249 142.048 8.27196 141.94 8.03817 141.682C7.82711 141.431 7.65219 141.359 6.87917 141.211C5.98998 141.044 5.97875 141.041 6.14995 141.306C6.25196 141.467 6.38374 141.563 6.44936 141.544C6.52646 141.529 6.59342 141.595 6.59985 141.706C6.60914 141.806 6.67603 141.873 6.75314 141.857C6.83024 141.842 6.89416 141.919 6.90873 142.045C6.93935 142.381 7.23291 142.776 7.5271 142.856C7.67395 142.895 7.80883 142.98 7.82444 143.057C7.87001 143.203 8.71196 143.904 8.92674 143.962C9.0059 143.984 9.36406 144.275 9.71026 144.611L10.3351 145.217L12.563 145.819C13.7957 146.152 15.9218 146.727 17.2873 147.108C20.7561 148.057 21.3049 148.181 21.3416 148.045C21.363 147.966 23.3513 148.467 27.2869 149.53C33.0659 151.091 33.2129 151.131 33.4777 150.959C33.7423 150.788 33.8892 150.828 46.5554 154.25C59.0181 157.617 59.3769 157.726 60.0201 158.13C60.5169 158.447 60.9993 158.638 62.0285 158.916C63.0801 159.2 63.6159 159.417 64.4396 159.871C65.022 160.186 65.6304 160.496 65.7882 160.539C65.9583 160.585 66.191 160.757 66.3237 160.938C66.5283 161.212 66.7454 161.307 68.0481 161.696C68.8564 161.938 69.6757 162.184 69.8536 162.244C70.0345 162.293 70.3241 162.481 70.4823 162.657C70.7474 162.935 70.987 163.036 72.2649 163.381C73.7349 163.779 73.7464 163.782 75.2151 163.644C76.784 163.497 77.822 163.474 79.6443 163.553C80.2691 163.576 81.5535 163.583 82.4916 163.57L84.2001 163.533L87.7245 164.413C89.6707 164.89 91.2959 165.341 91.3514 165.405C91.3961 165.465 92.4324 165.806 93.633 166.167C94.8262 166.513 96.2039 166.983 96.6828 167.185C97.1594 167.399 98.7436 167.912 100.197 168.329C101.669 168.763 102.872 169.161 102.913 169.233C103.12 169.592 105.316 169.906 105.858 169.652C105.955 169.605 106.599 169.694 107.272 169.852C108.016 170.016 108.615 170.093 108.775 170.039C109.041 169.953 109.557 170.019 111.819 170.448C112.396 170.556 112.938 170.617 113.03 170.593C113.135 170.561 113.266 170.256 113.401 169.759L113.612 168.978L123.437 171.596C132.539 174.018 133.277 174.205 133.669 174.105C134.148 173.991 134.264 174.01 134.102 174.161C133.972 174.284 134.089 174.255 134.918 173.969C135.264 173.856 135.626 173.82 135.864 173.884C136.079 173.942 136.462 173.961 136.701 173.928C136.992 173.885 137.527 173.969 138.184 174.146C139.167 174.412 139.484 174.364 138.853 174.048C138 173.611 137.126 173.12 136.728 172.842C136.225 172.5 134.462 171.975 134.3 172.126C134.123 172.284 132.355 171.734 131.39 171.218C130.51 170.75 130.083 170.622 116.06 166.834L101.652 162.941L101.437 163.199L101.222 163.456L97.2674 162.327C94.8336 161.633 93.1897 161.116 92.9623 160.97C92.7353 160.824 91.4694 160.433 89.4792 159.895L86.3572 159.052L86.4638 158.389C86.517 158.014 87.2673 155.011 88.1086 151.716C89.5582 146.036 89.6328 145.716 89.4602 145.548C89.3145 145.412 89.3237 145.244 89.5315 144.474C89.7732 143.58 89.7677 143.555 89.5038 143.544C89.2367 143.544 89.2397 143.533 89.5122 142.66C89.7623 141.913 89.7805 141.712 89.6651 141.329C89.5692 141.011 89.5839 140.687 89.697 140.269C89.8071 139.861 89.822 139.537 89.7463 139.322C89.6194 138.984 89.9508 137.532 91.9284 129.808C92.0917 129.16 92.1191 128.876 92.0095 128.7C91.8852 128.485 91.9858 127.978 92.8092 124.617C94.4699 117.84 96.5706 110.065 96.8217 109.72C96.9523 109.549 97.4508 108.153 97.9931 106.417C98.6122 104.484 99.1075 103.1 99.406 102.488C99.829 101.643 99.9774 101.136 100.978 97.1199C103.767 85.8987 105.752 78.0563 105.798 78.02C105.827 78.0032 106.986 78.3409 108.373 78.7761C110.859 79.545 114.454 80.4314 118.609 81.3108C119.781 81.5548 122.738 82.2437 125.176 82.8298C129.813 83.9488 131.777 84.3582 134.42 84.7684C135.54 84.9376 138.049 85.5307 143.032 86.8039C146.927 87.795 150.437 88.6344 150.896 88.6857C152.144 88.828 152.921 88.7833 154.333 88.4969C156.863 87.9778 156.381 87.921 161.587 89.315C166.834 90.7327 167.531 90.8483 168.293 90.4104C168.867 90.0793 169.135 89.448 169.662 87.1371C170.126 85.0637 170.205 84.0047 170.195 79.9094C170.177 75.2164 170.231 74.7454 171.434 69.0351C172.116 65.7463 172.156 65.283 171.901 63.9387C171.771 63.2965 171.691 62.6927 171.722 62.5788C171.823 62.2054 172.34 61.6406 173.283 60.8877C174.709 59.7425 174.841 59.5237 175.151 58.0164C175.389 56.8666 175.398 56.6983 175.205 56.2456C174.798 55.2369 174.595 55.134 170.492 53.6605C167.172 52.4729 165.474 51.7952 163.489 50.8337C161.061 49.6682 160.838 49.5956 153.869 47.5911C145.152 45.0908 139.346 43.3157 129.412 40.1099L124.266 38.4523L121.606 38.0126C117.113 37.2604 117.546 37.3652 117.55 37.0384C117.544 36.879 117.66 36.3149 117.8 35.7944C118.008 35.0248 118.097 34.8306 118.3 34.7515C118.463 34.6865 118.593 34.4787 118.744 34.009C118.853 33.6502 119.158 32.7005 119.416 31.8836C119.757 30.7973 119.93 30.3831 120.079 30.3259C120.302 30.216 120.58 29.3684 120.399 29.3195C120.343 29.3043 120.307 29.2098 120.332 29.1189C120.356 29.0282 120.321 28.9344 120.254 28.9161C120.174 28.8947 120.188 28.7523 120.269 28.5435C120.391 28.2726 120.382 28.1728 120.213 28.0792C120.033 27.9817 120.031 27.8961 120.243 27.3827C120.44 26.8776 120.448 26.7583 120.302 26.5364C120.208 26.3894 120.053 26.1536 119.96 26.007C119.863 25.8709 119.717 25.7348 119.627 25.7105C119.548 25.6891 119.433 25.5733 119.37 25.4471C119.302 25.295 119.164 25.2213 118.926 25.2056C118.651 25.1917 118.465 25.0689 118.137 24.7125C117.491 24.0036 116.981 23.6477 116.182 23.3708C115.784 23.2268 115.252 22.9494 114.991 22.7458C114.631 22.4661 114.247 22.3138 113.274 22.0509C112.415 21.8187 111.777 21.5736 111.209 21.2503C110.756 20.9948 109.89 20.5171 109.277 20.1821C108.664 19.8465 107.962 19.4377 107.706 19.2596C106.419 18.3653 105.128 17.7983 104.237 17.727Z" fill="black"/>
<path d="M53.2937 46.6748C52.8983 46.5639 52.6804 46.2819 52.6399 45.8288C52.5995 45.3757 52.6269 44.7893 52.7221 44.0696L52.8071 43.5222C52.9122 42.3331 53.0577 41.1629 53.2435 40.0116C53.4333 38.8462 53.6885 37.4479 54.009 35.8165L54.3216 34.2133C53.4704 33.9898 52.2729 33.6158 50.7292 33.0913L50.3114 32.9513C50.1177 32.8817 50.0022 32.7503 49.965 32.5571C49.9459 32.3537 49.9799 32.0967 50.0671 31.786L51.5287 32.196C53.9858 32.8853 56.1772 33.599 58.1027 34.3371C60.0282 35.0753 60.9118 35.7268 60.7533 36.2917C60.7097 36.447 60.6518 36.545 60.5795 36.5856C60.5213 36.6302 60.4145 36.6308 60.2591 36.5872C59.7062 36.3864 58.8643 36.0207 57.7335 35.4903C57.4771 35.3727 57.1662 35.2321 56.8007 35.0687C56.4353 34.9052 56.0204 34.7279 55.5562 34.5368C54.9818 36.5844 54.402 39.8187 53.8169 44.2396C53.7857 44.4594 53.7994 44.7907 53.8579 45.2336C53.881 45.4229 53.8931 45.6243 53.8941 45.8379C53.9132 46.0412 53.901 46.2206 53.8574 46.3759C53.8019 46.5736 53.74 46.6858 53.6717 46.7123C53.6033 46.7388 53.5267 46.7402 53.442 46.7164C53.3714 46.6966 53.322 46.6827 53.2937 46.6748ZM64.3408 49.7508C62.8722 49.3388 61.6655 48.7262 60.7207 47.9128C59.7941 47.0892 59.5129 46.0278 59.8774 44.7286C60.0081 44.2626 60.2761 43.8504 60.6813 43.4918C61.0865 43.1333 61.6022 42.8971 62.2282 42.7833C62.8581 42.6553 63.5685 42.7023 64.3593 42.9241C64.9666 43.0944 65.4741 43.2673 65.8819 43.4426C66.2897 43.6179 66.7333 43.9099 67.2127 44.3186C67.6922 44.7273 68.1512 45.2902 68.5898 46.0073C68.6372 44.9695 68.5379 44.0201 68.292 43.159C68.0461 42.2979 67.6962 41.5904 67.2423 41.0366C66.8064 40.4726 66.3202 40.1153 65.7835 39.9648C65.5293 39.8935 65.2754 39.8756 65.0217 39.911C64.7861 39.9363 64.4892 39.9901 64.131 40.0725C63.7146 40.1994 63.4217 40.2391 63.2522 40.1915C63.1816 40.1717 63.124 40.1327 63.0794 40.0745C63.0529 40.0061 63.0495 39.9366 63.0693 39.866C63.2278 39.3012 63.5977 38.9327 64.1791 38.7607C64.7746 38.5926 65.4285 38.6237 66.1408 38.854C67.1135 39.1878 67.8984 39.8649 68.4956 40.8855C69.0968 41.8919 69.468 43.0395 69.6092 44.3282C69.7645 45.6209 69.6857 46.825 69.3728 47.9406C69.3213 48.1242 69.2339 48.3815 69.1105 48.7125L68.4446 48.48C68.213 47.2421 67.7369 46.2783 67.0164 45.5888C66.3139 44.889 65.5391 44.4203 64.6918 44.1827C63.6044 43.8776 62.7822 43.8222 62.225 44.0162C61.6679 44.2103 61.3022 44.618 61.1279 45.2394C60.9457 45.889 61.1239 46.5026 61.6626 47.0802C62.2013 47.6578 62.979 48.0892 63.9957 48.3745C64.5606 48.5329 65.0204 48.6314 65.3752 48.67C65.7339 48.6945 66.1127 48.7017 66.5115 48.6917C66.8358 48.6761 67.1169 48.6787 67.3547 48.6998C67.5925 48.7208 67.888 48.7808 68.241 48.8798C68.6364 48.9907 68.8756 49.0883 68.9586 49.1725C69.0558 49.2607 69.0766 49.4036 69.0211 49.6013C68.9815 49.7426 68.6425 49.8379 68.0041 49.8873C67.3657 49.9367 66.6626 49.9451 65.8949 49.9126C65.1272 49.88 64.6091 49.8261 64.3408 49.7508ZM71.919 51.8994C71.566 51.8004 71.4469 51.5461 71.5618 51.1366C71.5855 51.0519 71.6633 50.8833 71.795 50.6308C71.9409 50.3823 72.0594 50.0956 72.1505 49.7709L72.4417 48.7329L72.8695 47.2078C73.0801 46.1853 73.2463 44.9143 73.3679 43.3947C73.5009 41.7259 73.6728 40.1899 73.8836 38.7867C73.9933 38.5585 74.14 38.4702 74.3235 38.5217C74.5636 38.589 74.6748 39.3057 74.6572 40.6717C74.6436 42.0236 74.4053 44.2036 73.9423 47.2117C74.4228 46.5848 75.0112 45.9806 75.7075 45.3991C76.4077 44.8034 77.1005 44.3427 77.786 44.0171C78.4714 43.6914 79.0189 43.5861 79.4284 43.7009C79.5979 43.7485 79.6899 43.8276 79.7045 43.9383C79.7333 44.053 79.7149 44.2002 79.6493 44.3798C78.6101 44.8804 77.5302 45.4991 76.4096 46.2358C75.289 46.9725 74.6534 47.6092 74.5028 48.1458C74.4117 48.4706 74.5751 48.9201 74.9929 49.4943C75.4146 50.0543 75.9753 50.6076 76.675 51.1543C77.3787 51.6868 78.0706 52.0713 78.7506 52.3077C79.0071 52.4254 79.0957 52.6254 79.0164 52.9078C78.8817 53.388 78.3625 53.5013 77.4587 53.2477C76.7385 53.0457 76.0289 52.5344 75.3299 51.7138C74.645 50.8971 74.081 50.0839 73.638 49.2741C73.5282 49.5023 73.4406 49.7062 73.375 49.8858C73.3133 50.0513 73.2576 50.1956 73.2078 50.3188C72.977 50.9243 72.7706 51.3614 72.5886 51.6303C72.4246 51.8889 72.2014 51.9787 71.919 51.8994ZM84.6233 55.4403C83.7195 55.1868 82.9359 54.7765 82.2723 54.2096C81.6088 53.6426 81.1422 52.971 80.8725 52.1946C80.6028 51.4183 80.5868 50.6065 80.8245 49.7592C81.0899 48.813 81.514 47.9799 82.0968 47.2599C82.6836 46.5258 83.3852 46.0066 84.2017 45.7025C85.0362 45.3882 85.9125 45.3598 86.8304 45.6173C87.7906 45.8867 88.4308 46.4014 88.7507 47.1614C89.0746 47.9072 89.0918 48.7422 88.8021 49.6663C88.5684 50.4995 88.0582 51.0419 87.2717 51.2935C86.4993 51.549 85.6048 51.5342 84.588 51.249C84.4327 51.2054 84.2036 51.1259 83.9009 51.0105C83.4083 50.8115 83.07 50.6328 82.8859 50.4745C82.7018 50.3162 82.6514 50.0888 82.7346 49.7923C82.7623 49.6934 82.8103 49.6307 82.8787 49.6042C82.951 49.5636 83.0719 49.567 83.2414 49.6145C83.425 49.666 83.7379 49.7995 84.1801 50.015C84.6083 50.2265 84.9988 50.3817 85.3519 50.4808C86.6511 50.8452 87.4591 50.4625 87.776 49.3328C87.9662 48.655 87.9896 48.0827 87.8463 47.616C87.7172 47.1533 87.3419 46.8347 86.7206 46.6604C86.0427 46.4703 85.384 46.4835 84.7444 46.7002C84.1087 46.9027 83.5614 47.2518 83.1025 47.7476C82.6576 48.2474 82.3441 48.8221 82.1619 49.4717C81.8489 50.5873 81.9021 51.5923 82.3214 52.4868C82.7447 53.3672 83.606 53.9896 84.9052 54.354C85.0605 54.3976 85.3257 54.4568 85.7008 54.5315C85.8601 54.561 86.0626 54.5721 86.3084 54.5649C86.5541 54.5576 86.7304 54.5538 86.8372 54.5533C87.5038 54.5118 87.9783 54.5306 88.2608 54.6099C88.4726 54.6693 88.6191 54.7713 88.7004 54.916C88.1969 55.3536 87.5564 55.6004 86.779 55.6566C86.0197 55.7025 85.3011 55.6304 84.6233 55.4403ZM99.8586 59.714C98.3899 59.302 97.1832 58.6893 96.2385 57.8759C95.3118 57.0524 95.0307 55.991 95.3951 54.6918C95.5258 54.2258 95.7938 53.8135 96.199 53.455C96.6043 53.0964 97.1199 52.8602 97.7459 52.7464C98.3759 52.6185 99.0863 52.6654 99.8771 52.8873C100.484 53.0576 100.992 53.2304 101.4 53.4057C101.807 53.5811 102.251 53.8731 102.73 54.2818C103.21 54.6904 103.669 55.2533 104.108 55.9704C104.155 54.9327 104.056 53.9832 103.81 53.1222C103.564 52.2611 103.214 51.5536 102.76 50.9998C102.324 50.4357 101.838 50.0785 101.301 49.9279C101.047 49.8566 100.793 49.8387 100.539 49.8742C100.304 49.8995 100.007 49.9533 99.6488 50.0356C99.2323 50.1625 98.9394 50.2022 98.7699 50.1547C98.6993 50.1349 98.6417 50.0959 98.5971 50.0377C98.5706 49.9693 98.5673 49.8998 98.5871 49.8292C98.7455 49.2643 99.1154 48.8959 99.6968 48.7239C100.292 48.5558 100.946 48.5869 101.659 48.8172C102.631 49.1509 103.416 49.8281 104.013 50.8487C104.615 51.8551 104.986 53.0027 105.127 54.2914C105.282 55.584 105.203 56.7881 104.89 57.9038C104.839 58.0873 104.752 58.3446 104.628 58.6756L103.962 58.4431C103.731 57.2052 103.255 56.2415 102.534 55.5519C101.832 54.8522 101.057 54.3835 100.209 54.1458C99.1221 53.8408 98.2999 53.7853 97.7428 53.9794C97.1856 54.1735 96.8199 54.5812 96.6456 55.2025C96.4634 55.8521 96.6417 56.4657 97.1803 57.0434C97.719 57.621 98.4967 58.0524 99.5135 58.3376C100.078 58.4961 100.538 58.5946 100.893 58.6332C101.252 58.6576 101.63 58.6649 102.029 58.6549C102.354 58.6392 102.635 58.6419 102.872 58.6629C103.11 58.6839 103.406 58.744 103.759 58.843C104.154 58.9539 104.393 59.0515 104.476 59.1357C104.573 59.2239 104.594 59.3668 104.539 59.5645C104.499 59.7057 104.16 59.801 103.522 59.8504C102.883 59.8999 102.18 59.9083 101.413 59.8757C100.645 59.8431 100.127 59.7892 99.8586 59.714ZM111.957 60.4114C112.198 60.3116 112.41 60.2874 112.594 60.3389C112.763 60.3864 112.912 60.4814 113.04 60.6238C113.181 60.7702 113.315 60.9448 113.441 61.1477C113.571 61.3364 113.675 61.48 113.754 61.5783C114.008 61.9236 114.397 62.2461 114.922 62.5458C115.448 62.8454 116.028 63.0844 116.664 63.2627C117.384 63.4647 118.064 63.5108 118.704 63.4009C119.362 63.2809 119.757 62.9879 119.887 62.5219C120.006 62.0982 119.944 61.7228 119.701 61.3956C119.461 61.0542 119.139 60.7657 118.732 60.5299C118.326 60.2941 117.777 60.0258 117.085 59.7249C116.142 59.3386 115.405 58.9795 114.873 58.6477C114.356 58.3198 113.981 57.9176 113.749 57.4413C113.521 56.9508 113.507 56.3525 113.705 55.6464C113.918 54.8839 114.437 54.42 115.26 54.2549C116.087 54.0756 116.967 54.1167 117.899 54.3782C118.746 54.6158 119.415 55.0014 119.905 55.535C120.413 56.0584 120.581 56.6539 120.409 57.3216C120.331 57.7108 120.189 57.9985 119.984 58.1849C119.784 58.3571 119.585 58.4155 119.387 58.36C119.274 58.3283 119.187 58.2582 119.126 58.1497C119.079 58.0452 119.076 57.9223 119.115 57.7811C119.179 57.5551 119.325 57.3298 119.556 57.1051C119.581 56.7463 119.419 56.4268 119.071 56.1464C118.737 55.87 118.302 55.6565 117.765 55.506C116.975 55.2842 116.305 55.2562 115.755 55.422C115.21 55.5737 114.882 55.8473 114.771 56.2427C114.652 56.6663 114.731 57.0387 115.006 57.3597C115.282 57.6807 115.646 57.958 116.098 58.1915C116.569 58.4149 117.244 58.6957 118.124 59.0339C118.845 59.3427 119.418 59.6331 119.845 59.905C120.285 60.1809 120.61 60.5692 120.82 61.0698C121.034 61.5564 121.036 62.1738 120.826 62.9223C120.608 63.699 120.076 64.2122 119.229 64.4621C118.386 64.6979 117.463 64.6751 116.46 64.3938C115.175 64.0334 114.086 63.4916 113.192 62.7687C112.312 62.0496 111.9 61.2639 111.957 60.4114ZM127.132 67.3873C125.48 66.9239 124.3 66.1892 123.592 65.1832C122.902 64.1671 122.779 62.8683 123.222 61.2867C123.448 60.4817 123.86 59.7746 124.457 59.1653C125.073 58.5459 125.781 58.1124 126.581 57.8647C127.4 57.6069 128.205 57.589 128.996 57.8108C129.801 58.0366 130.436 58.4052 130.902 58.9167C131.372 59.4141 131.515 59.9876 131.333 60.6372C131.206 61.0891 131.031 61.3901 130.806 61.5403C130.599 61.6803 130.397 61.7225 130.199 61.6671C130.389 60.9892 130.36 60.387 130.112 59.8604C129.863 59.3337 129.4 58.9753 128.722 58.7852C128.044 58.595 127.407 58.6142 126.81 58.8427C126.216 59.0571 125.702 59.4233 125.268 59.9411C124.851 60.4488 124.554 61.0204 124.375 61.6558C123.999 62.9974 124.196 64.035 124.965 64.7686C125.748 65.5063 126.888 66.085 128.385 66.5049C128.893 66.6475 129.565 66.8055 130.4 66.9787C130.428 66.9867 130.484 67.0327 130.567 67.1169C130.65 67.2012 130.717 67.2582 130.77 67.2882L130.734 67.4153C130.619 67.8248 130.188 67.978 129.44 67.8748C128.692 67.7717 127.923 67.6092 127.132 67.3873ZM133.203 69.0675C132.941 67.7754 132.854 66.3192 132.943 64.699C133.046 63.0828 133.254 61.7168 133.567 60.6012C133.69 60.1635 133.868 59.9088 134.102 59.8371C134.234 59.7982 134.329 59.7867 134.385 59.8025C134.484 59.8303 134.533 59.9277 134.532 60.0949C134.545 60.2661 134.522 60.5644 134.464 60.9898L134.356 61.7821C134.725 61.0631 135.19 60.5461 135.75 60.2311C136.329 59.906 136.943 59.8345 137.593 60.0167C138.313 60.2188 138.81 60.5105 139.084 60.892C139.362 61.2593 139.411 61.7607 139.233 62.3962C138.622 61.8592 138.027 61.5095 137.448 61.3471C136.897 61.1926 136.383 61.2082 135.904 61.3938C135.425 61.5795 135.027 61.94 134.71 62.4754C134.472 62.8352 134.303 63.1916 134.204 63.5446C134.097 63.9259 134.045 64.2998 134.049 64.6665C134.071 65.023 134.128 65.473 134.219 66.0165C134.292 66.5702 134.336 67.0394 134.35 67.4241C134.378 67.8128 134.341 68.2139 134.241 68.6274C134.173 68.8674 134.039 69.0202 133.838 69.0856C133.641 69.1369 133.429 69.1309 133.203 69.0675ZM142.275 71.6352C141.442 71.4015 140.738 71.006 140.163 70.4487C139.607 69.8812 139.231 69.2122 139.035 68.4415C138.858 67.6607 138.891 66.8396 139.132 65.9781C139.529 64.566 140.339 63.6585 141.564 63.2557C142.803 62.8569 144.178 62.8694 145.689 63.2933C146.381 63.4874 146.976 63.8371 147.474 64.3424C147.986 64.8516 148.337 65.4755 148.526 66.2139C148.715 66.9524 148.692 67.7382 148.459 68.5714C148.205 69.4752 147.75 70.2006 147.094 70.7477C146.442 71.2807 145.683 71.6239 144.817 71.7771C143.97 71.9202 143.123 71.8729 142.275 71.6352ZM142.381 70.3625C143.694 70.7309 144.773 70.7136 145.617 70.3106C146.461 69.9077 147.044 69.1343 147.365 67.9904C147.583 67.2137 147.503 66.4677 147.124 65.7523C146.76 65.0409 146.105 64.5524 145.159 64.287C144.524 64.1088 143.847 64.0486 143.131 64.1064C142.414 64.1643 141.776 64.3738 141.218 64.7351C140.659 65.0964 140.285 65.616 140.095 66.2938C139.936 66.8587 139.929 67.4279 140.073 68.0014C140.221 68.5607 140.493 69.056 140.89 69.4872C141.305 69.9083 141.802 70.2001 142.381 70.3625ZM149.467 73.4697C149.588 71.8433 149.859 69.9543 150.28 67.8027C150.718 65.6408 151.215 63.5714 151.77 61.5944C152.047 60.6059 152.314 59.7363 152.57 58.9856C152.622 58.802 152.789 58.7499 153.071 58.8291C153.297 58.8925 153.422 58.9886 153.447 59.1174C153.486 59.2502 153.472 59.4366 153.404 59.6766C152.763 61.9643 152.256 63.9321 151.886 65.5798C151.519 67.2134 151.145 68.9821 150.763 70.8858C150.511 72.1099 150.34 72.9377 150.249 73.3693C150.2 73.5992 150.048 73.6785 149.794 73.6072C149.709 73.5834 149.6 73.5376 149.467 73.4697ZM153.025 74.4678C153.146 72.8414 153.417 70.9524 153.838 68.8007C154.276 66.6389 154.773 64.5695 155.328 62.5925C155.605 61.6039 155.872 60.7344 156.128 59.9837C156.18 59.8001 156.347 59.7479 156.629 59.8271C156.855 59.8905 156.98 59.9866 157.005 60.1154C157.044 60.2482 157.03 60.4346 156.962 60.6747C156.321 62.9624 155.814 64.9301 155.444 66.5779C155.077 68.2115 154.702 69.9802 154.321 71.8838C154.069 73.1079 153.898 73.9358 153.807 74.3673C153.758 74.5972 153.606 74.6765 153.352 74.6052C153.267 74.5815 153.158 74.5356 153.025 74.4678Z" fill="white"/>
</g>
<defs>
<clipPath id="clip0_32_10">
<rect width="149.072" height="149.072" fill="white" transform="translate(38.8798) rotate(15.1182)"/>
</clipPath>
</defs>
</svg>
