<svg
  width="482"
  height="441"
  viewBox="0 0 482 441"
  fill="none"
  xmlns="http://www.w3.org/2000/svg"
  preserveAspectRatio="xMidYMid meet"
  shape-rendering="geometricPrecision"
  aria-hidden="true"
>
<path d="M121.831 212.306C110.36 204.378 101.696 193.991 103.213 179.062C103.608 175.166 104.056 171.282 104.564 167.41C104.584 167.256 104.644 167.148 104.745 167.09C104.979 166.941 105.099 167.003 105.106 167.276C105.594 177.673 108 186.243 114.497 194.008C114.665 194.202 114.979 194.121 115.026 193.868C115.347 192.044 115.808 190.252 116.416 188.479C117.753 184.589 120.969 179.971 122.045 176.842C122.787 174.658 123.422 172.444 123.95 170.198C124.184 169.187 124.338 169.202 124.398 170.239C124.692 175.131 124.171 179.997 122.941 185.025C121.296 191.704 118 199.524 124.171 205.38C125.268 206.415 127.961 208.135 132.246 210.52C146.893 218.676 158.832 228.65 166.499 243.872C166.599 244.085 166.793 244.239 167.021 244.293C168.044 244.554 169.441 244.781 171.219 244.975C173.498 245.222 177.268 246.064 182.523 247.502C201.903 252.789 220.62 261.486 237.546 272.282C237.886 272.503 238.013 272.416 237.913 272.021C232.158 248.337 223.354 223.054 208.48 203.669C201.293 194.304 192.57 187.059 182.616 180.351C167.889 170.425 150.977 162.712 133.436 159.543C124.084 157.858 115.728 157.576 108.374 158.701C91.3619 161.295 74.3619 162.215 58.2846 154.883C49.1531 150.718 43.4577 143.725 41.2052 133.906C40.0693 128.947 39.494 122.707 34.6803 120.035C32.5481 118.852 30.4159 117.668 28.2836 116.5C28.1565 116.433 28.1157 116.264 28.2031 116.142L28.3165 115.992C28.337 115.956 28.3699 115.951 28.4107 115.962C34.5339 118.19 39.5473 120.776 42.1607 127.079C43.5984 130.562 44.8285 133.264 45.8441 135.182C50.0825 143.206 56.7674 149.34 66.1735 150.284C66.3199 150.297 66.4208 150.151 66.3607 150.018C64.0333 144.954 61.9953 140.431 61.286 134.801C60.8582 131.44 60.4236 128.163 59.8823 124.813C59.7552 124.038 59.9232 123.971 60.3771 124.614C63.3853 128.837 63.2991 133.496 64.9502 138.171C69.689 151.595 82.4437 155.249 95.6604 152.356C102.719 150.811 109.745 149.193 116.985 148.524C117.232 148.504 117.292 148.385 117.172 148.164C113.388 141.485 111.383 134.293 111.162 126.58C111.061 123.111 111.376 119.66 110.527 116.383C109.945 114.132 109.257 112.052 108.455 110.141C104.376 100.4 100.813 91.5226 97.7722 83.51C96.6896 80.6402 95.3653 78.188 93.7415 75.8413C93.1661 75.0129 93.2808 74.9051 94.0819 75.5122C98.554 78.9437 101.43 84.0763 103.943 89.2247C104.177 89.7127 104.376 89.6922 104.538 89.1782C106.489 82.8541 107.619 76.3905 107.933 69.7839C107.946 69.5308 107.993 69.5229 108.08 69.7635C110.994 77.8657 110.42 84.9977 108.555 93.2622C108.434 93.7706 108.495 94.3107 108.716 94.7873L115.059 108.482C115.106 108.589 115.246 108.603 115.313 108.511C120.567 100.856 127.012 94.6398 129.994 85.6071C131.264 81.7557 131.791 76.1953 133.128 71.5768C133.403 70.627 133.537 70.6463 133.516 71.629C133.43 76.7184 133.102 82.0518 132.547 87.6326C131.698 96.1502 128.583 101.178 123.723 108.476C120.241 113.711 118.722 119.325 119.17 125.336C119.725 132.75 123.115 143.196 130.3 146.88C131.297 147.388 133.102 147.949 135.715 148.559C150.155 151.914 163.939 157.068 177.068 164.019C177.255 164.122 177.476 163.947 177.423 163.74C173.885 150.558 169.815 137.502 165.216 124.581C161.017 112.787 154.815 105.789 144.372 99.1244C144.145 98.9769 144.032 98.8021 144.038 98.6013C144.044 98.4617 144.165 98.355 144.305 98.3698C162.261 100.162 167.388 113.556 172.65 128.178C172.743 128.439 173.057 128.532 173.284 128.37C174.548 127.469 175.878 126.606 177.275 125.778C181.347 123.364 188.138 121.627 191.875 119.813C207.892 112.066 215.251 91.4897 215.151 74.7111C215.077 63.1728 210.526 50.2568 199.803 44.8043C193.433 41.5623 188.64 39.0488 184.836 33.2444C180.457 26.5754 179.12 18.5924 179.027 10.8237C179.02 10.1157 179.1 10.1009 179.274 10.7897C182.804 24.7473 189.094 33.0652 203.406 36.9551C203.587 37.0017 203.76 36.8621 203.747 36.676C202.664 23.6784 204.068 11.272 211.835 0.58362C212.445 -0.252702 212.564 -0.191424 212.191 0.775396C208.44 10.4288 206.628 22.168 209.176 32.3412C212.136 44.162 219.804 53.7281 222.986 65.5138C226.957 80.26 223.581 95.3887 218.641 109.374C218.568 109.591 218.647 109.707 218.881 109.699C221.709 109.658 224.53 109.748 227.331 109.966C231.643 110.309 234.451 110.37 235.761 110.149C240.875 109.312 244.772 106.411 247.445 101.443C251.543 93.8375 254.029 87.1991 262.847 83.9548C264.238 83.4408 264.366 83.67 263.236 84.6255C260.77 86.7112 258.571 89.2656 256.644 92.2806C254.512 95.6214 253.469 99.357 252.221 103.342C249.385 112.36 243.161 117.126 233.555 117.655C228.923 117.902 223.808 117.368 218.386 118.771C215.82 119.433 212.605 120.949 208.741 123.312C203.339 126.612 197.857 129.776 192.296 132.791C189.622 134.24 187.509 136.131 185.953 138.464C184.621 140.457 185.284 143.338 186.119 145.416C193.847 164.67 207.578 182.092 223.08 195.652C223.26 195.814 223.415 195.788 223.528 195.574C230.714 182.144 242.178 172.209 255.476 165.057C256.063 164.737 256.465 164.263 256.685 163.639C260.822 151.708 266.571 140.617 273.938 130.368C274.245 129.936 274.338 129.459 274.226 128.947C271.899 118.806 269.472 105.835 277.642 97.6549C279.614 95.6736 281.772 93.8784 284.111 92.2511C284.213 92.1785 284.353 92.2806 284.321 92.3998C284.265 92.6199 284.172 92.8208 284.044 93.0148C282.58 95.113 281.105 97.2044 279.614 99.2844C274.472 106.445 275.91 116.573 278.711 124.581C278.813 124.86 278.958 124.895 279.152 124.674C284.146 119.079 290.023 114.512 295.824 109.815C298.157 107.921 300.472 105.335 302.764 102.044C307.641 95.0461 308.652 87.9345 307.189 79.2921C306.178 73.2937 304.269 67.5847 301.466 62.1639C299.882 59.0876 297.114 55.3372 295.557 52.6909C289.178 41.8607 289.88 28.4512 296.74 17.9501C297.334 17.0355 297.468 17.0933 297.129 18.1362C295.095 24.3263 294.185 30.8921 294.401 37.838C294.567 43.3722 296.58 48.0985 300.431 52.0112C307.775 59.4825 313.641 67.5995 316.086 78.2345C316.133 78.4353 316.241 78.4671 316.394 78.3423C320.859 74.6589 323.928 71.5099 325.6 68.8897C332.142 58.6405 326.507 48.5921 324.528 38.0785C324.377 37.257 324.482 37.2218 324.851 37.9719C330.533 49.4954 338.173 62.4987 330.792 75.0708C330.112 76.2305 328.7 78.1993 326.568 80.9738C320.732 88.5563 316.293 96.8583 312.777 105.85C312.676 106.117 312.763 106.236 313.051 106.216C324.06 105.361 335.125 104.853 344.529 98.3289C352.498 92.8003 358.676 84.9194 364.077 76.959C367.598 71.7629 372.24 68.3348 377.995 66.6701C378.977 66.3887 379.064 66.5623 378.253 67.1841C371.81 72.1658 368.844 77.5729 365.533 86.1824C361.021 97.9079 352.724 105.556 340.654 109.124C336.34 110.402 331.166 111.605 325.129 112.729C304.315 116.612 287.917 126.766 277.709 145.826C275.634 149.695 273.83 153.651 272.288 157.71C272.232 157.852 272.273 157.889 272.413 157.837C283.913 153.466 295.716 151.165 307.911 149.884C313.867 149.259 320.792 147.711 325.76 145.349C337.043 140.001 339.544 129.874 341.343 118.603C341.348 118.586 341.36 118.565 341.38 118.55C341.442 118.519 341.503 118.504 341.549 118.519C341.595 118.53 341.615 118.565 341.622 118.612C341.822 120.657 342.017 122.701 342.209 124.746C343.623 139.835 334.181 149.433 320.818 154.02C320.125 154.262 320.125 154.502 320.818 154.735C334.341 159.36 345.432 169.844 359.993 163.801C361.149 163.319 362.892 162.329 365.227 160.833C369.352 158.178 373.121 155.705 377.698 154.262C379.752 153.614 379.86 153.852 378.035 154.982C371.871 158.779 367.226 164.803 360.775 168.693C353.227 173.239 345.706 172.464 337.752 169.362C324.22 164.101 310.686 157.919 295.891 160.258C293.209 160.679 289.787 161.588 285.63 162.986C264.874 169.958 240.514 180.572 239.538 206.464C238.963 221.731 247.079 236.965 253.167 250.516C253.263 250.723 253.551 250.737 253.655 250.536C270.182 219.54 310.883 206.485 343.682 207.946C346.08 208.053 348.488 208.181 350.894 208.321C351.106 208.335 351.321 208.233 351.449 208.062C358.622 198.507 366.41 189.973 375.795 182.416C381.277 177.999 389.333 172.973 395.114 168.499C399.948 164.763 403.19 160.53 404.828 155.813C405.755 153.137 406.156 151.194 406.037 149.971C405.717 146.714 398.397 143.945 395.741 143.01C387.32 140.047 385.255 133.705 381.458 126.307C381.037 125.496 381.156 125.403 381.818 126.036C383.242 127.402 384.746 128.919 386.318 130.582C391.625 136.178 398.164 138.752 405.923 138.29C406.238 138.273 406.499 138.042 406.56 137.735C407.614 132.256 409.325 126.966 411.687 121.88C412.782 119.506 412.428 116.927 411.646 114.173C409.761 107.526 408.765 102.823 410.603 96.1502C410.851 95.2662 411.112 93.4631 411.667 92.2307C411.867 91.7836 411.966 91.8097 411.975 92.2976C412.053 97.1726 412.541 101.925 414.145 106.553C414.929 108.81 415.711 111.064 416.492 113.316C416.579 113.562 416.718 113.603 416.925 113.45C420.992 110.288 425.37 107.648 430.061 105.536C430.906 105.156 431.011 105.307 430.389 105.983C426.828 109.882 423.171 113.964 419.406 118.236C418.27 119.526 417.462 120.996 416.974 122.64C415.356 128.131 414.273 132.668 413.726 136.265C413.003 141.044 414.339 146.802 415.348 151.822C415.391 152.027 415.618 152.141 415.804 152.048C423.618 148.338 431.406 146.627 439.796 144.675C441.301 144.321 442.242 143.385 442.623 141.86C444.247 135.323 446.486 129.833 451.822 125.604C452.47 125.087 452.59 125.197 452.189 125.912C448.726 132.094 448.124 138.584 447.491 145.584C447.476 145.744 447.595 145.893 447.759 145.913C452.79 146.427 456.956 146.221 461.281 143.39C462.068 142.876 467.37 138.517 467.53 138.517C467.643 138.517 467.725 138.632 467.686 138.731C465.078 145.416 460.387 149.951 452.979 150.511C445.951 151.051 441.338 151.493 433.832 154.811C423.473 159.38 413.773 165.103 404.735 171.976C404.567 172.103 404.614 172.362 404.808 172.429C411.527 174.69 415.609 179.142 420.411 184.043C425.19 188.921 430.866 190.144 437.422 187.704C440.191 186.684 443.633 184.615 446.681 183.773C450.579 182.704 454.474 182.39 458.385 182.833C458.821 182.879 458.821 182.965 458.4 183.079C454.443 184.148 450.832 184.863 447.204 187.015C437.757 192.613 428.437 198.328 417.756 190.539C412.274 186.537 398.361 177.382 391.585 182.19C388.583 184.323 385.763 186.684 383.134 189.27C376.337 195.96 370.119 203.132 364.484 210.786C364.417 210.874 364.466 211.002 364.571 211.028C372.894 213.253 380.894 216.237 388.583 219.972C393.938 222.573 399.106 224.458 404.091 225.621C416.405 228.497 430.29 224.552 440.946 218.194C446.219 215.054 450.811 209.944 456.36 206.717C460.593 204.257 465.072 202.626 469.811 201.825C470.431 201.723 470.459 201.81 469.897 202.084C463.82 205.052 458.452 208.021 453.8 213.134C451.942 215.173 450.085 217.218 448.232 219.27C437.167 231.491 422.784 238.089 406.156 234.098C402.774 233.282 398.778 231.966 394.158 230.148C384.54 226.358 374.948 222.393 364.905 219.786C337.142 212.585 308.36 221.19 286.226 238.584C274.153 248.076 266.852 260.671 262.809 275.992C259.901 287.042 258.062 298.266 257.301 309.677C257.28 309.898 257.368 309.945 257.548 309.817C271.837 299.911 286.273 289.802 299.703 278.746C306.085 273.498 312.496 267.121 319.662 263.497C326.803 259.882 331.695 257.836 333.319 249.4C333.961 246.057 334.233 242.903 334.135 239.934C334.103 238.824 334.31 238.778 334.742 239.793C336.129 242.968 336.848 246.284 336.909 249.754C336.915 250.169 337.252 250.503 337.665 250.516C344.169 250.703 350.252 249.253 355.914 246.164C355.946 246.145 355.981 246.138 356.013 246.145C356.181 246.164 356.216 246.238 356.129 246.372C351.501 253.29 345.432 254.453 338.034 256.706C337.192 256.96 336.447 257.489 335.928 258.211C332.703 262.676 328.093 266.079 323.52 269.127C323.218 269.328 323.254 269.448 323.608 269.488C337.665 271.179 354.276 275.511 365.239 277.958C371.897 279.441 379.413 280.592 386.024 280.257C393.074 279.903 402.534 278.453 408.43 274.027C411.478 271.74 413.044 267.964 415.946 265.37C423.398 258.699 433.8 260.135 440.633 253.084C441.333 252.354 441.472 252.448 441.039 253.364C439.375 256.893 436.173 258.992 432.711 260.503C425.642 263.592 418.551 268.177 415.428 275.01C415.309 275.271 415.495 275.577 415.783 275.584C430.061 276.146 443.093 283.426 450.94 295.064C454.336 300.09 457.398 305.038 462.476 308.453C471.126 314.257 478.014 319.023 481.63 329.144C481.982 330.126 481.863 330.192 481.267 329.331C480.045 327.56 478.975 325.266 477.671 323.635C471.146 315.499 461.353 313.441 454.243 306.421C451.154 303.38 448.346 299.53 445.336 296.161C434.735 284.328 418.017 283.085 403.693 287.57C394.914 290.318 386.175 293.86 377.272 294.161C366.369 294.536 358.642 290.806 349.035 287.825C335.393 283.586 322.149 284.335 309.3 290.07C287.634 299.75 270.696 319.196 261.591 340.815C258.057 349.192 255.964 356.939 255.299 364.058C254.111 376.806 256.351 389.286 259.193 401.654C262.12 414.428 265.26 427.136 268.61 439.771C268.662 439.972 268.511 440.171 268.302 440.171L232.699 440.092C232.438 440.092 232.278 439.965 232.232 439.711C229.303 425.446 225.794 410.959 224.336 396.459C223.207 385.276 223.848 374.193 226.262 363.209C229.577 348.094 232.947 333.916 234.029 317.765C234.959 303.901 230.393 290.979 219.303 282.377C211.535 276.353 202.484 270.918 192.143 266.085C183.913 262.241 175.598 260.075 167.195 259.594C147.554 258.47 130.742 268.799 112.499 273.879C105.527 275.826 98.6811 277.283 91.9769 278.252C84.9243 279.267 77.7776 280.197 71.7281 282.791C61.8477 287.022 52.7832 294.95 49.2133 305.392C47.3556 310.826 45.5309 316.275 43.7323 321.737C41.5195 328.455 37.0611 332.947 30.3489 335.207C26.291 336.57 22.3204 338.134 18.4237 339.892C17.9754 340.093 17.9357 340.026 18.2966 339.699C20.8566 337.372 24.0181 335.701 27.1205 334.177C33.0031 331.289 36.2917 329.324 37.4616 322.866C39.0526 314.109 40.1556 306.294 43.8322 297.41C43.9332 297.156 43.8526 297.063 43.5848 297.123C35.9444 298.901 27.9092 299.944 19.4722 300.245C12.3799 300.499 5.89585 299.502 0.461456 295.051C-0.213729 294.503 -0.146778 294.396 0.654366 294.723C6.5177 297.136 11.9657 297.644 19.1249 296.849C27.6153 295.9 36.1317 294.456 44.167 291.481C48.9534 289.709 52.4961 285.966 56.326 282.764C63.8132 276.506 71.6079 271.888 81.8026 270.871C87.7318 270.283 93.4873 269.555 99.076 268.679C100.406 268.471 100.406 268.251 99.076 268.031C97.0765 267.696 94.6436 267.208 92.8325 266.286C83.4673 261.513 84.3229 253.163 83.5535 243.704C83.5399 243.53 83.4934 243.363 83.4196 243.209C83.3459 243.063 83.3198 242.915 83.3334 242.762C83.3527 242.487 83.4333 242.468 83.5672 242.709C87.6784 250.148 85.3851 258.518 95.8476 261.64C107.405 265.083 119.712 259.688 130.368 254.841C138.617 251.091 147.066 247.928 155.717 245.349C155.823 245.315 155.877 245.195 155.83 245.095C147.327 227.521 129.532 218.22 110.314 219.505C97.4578 220.36 83.6477 226.478 73.3792 233.978C64.9627 240.128 57.9839 249.313 46.8677 251.385C42.803 252.148 39.1195 252.455 35.8105 252.308C34.3467 252.247 34.3195 252.02 35.73 251.626C49.1872 247.863 58.1041 240.114 67.8711 230.408C68.1116 230.174 67.9914 229.767 67.6634 229.7C57.2553 227.533 49.6479 221.685 44.8489 212.153C43.485 209.451 42.1743 206.924 40.9181 204.579C40.2021 203.24 40.3428 203.142 41.3459 204.283C43.5111 206.749 45.9315 209.86 48.0104 211.931C55.0357 218.944 63.6259 222.987 73.7809 224.051C74.7829 224.157 75.6454 224.011 76.5883 223.482C90.4858 215.723 105.72 211.438 121.737 212.565C122.091 212.594 122.119 212.507 121.831 212.306Z" fill="currentColor"/>
</svg>
