<svg width="1440" height="285" viewBox="0 0 1440 285" fill="none" xmlns="http://www.w3.org/2000/svg">
<path d="M-818 1058.48C-129.758 800.571 2509.33 836.681 3182 1071.62V438.45C3149.06 421.489 3104.73 398.259 3100.73 393.368C3098.38 390.29 3097.52 384.231 3095.28 382.04C3089.59 376.481 3082.05 378.911 3076.37 370.7C3072.3 364.81 3074.79 357.56 3068.99 351.63C3060.39 342.841 3046.75 346.548 3039.39 347.579C3022.08 350.009 3005.21 350.849 2987.37 352.388C2974.97 353.47 2973.62 351.47 2964.04 338.638C2938.83 335.888 2913.8 339.118 2890.88 343.841C2881.73 345.72 2877.59 345.079 2867.78 343.38C2859.32 341.911 2849.98 346.04 2842.56 344.368C2832.14 342.02 2812 322.528 2801.58 316.009C2791.28 309.509 2771.6 305.86 2767.68 292.411C2758.8 291.188 2753.27 297.079 2745.2 297.02C2737.53 296.958 2729.75 294.161 2722.18 294.27C2703.08 294.571 2699.29 287.368 2681.35 278.028C2670.13 272.2 2661.55 263.501 2651.94 257.368C2642.51 251.36 2630.23 252.829 2619.65 246.45C2609.72 240.458 2597.31 231.97 2587.97 224.368C2581.66 228.669 2582.05 231.251 2574.55 228.618C2569.3 226.778 2560.83 218.548 2555.64 215.36C2547.66 210.45 2534.28 206.251 2531.31 197.161C2526.24 195.329 2521.54 190.931 2519.82 185.931C2512.5 184.931 2504.87 188.501 2497.9 190.431C2484.18 194.231 2469.62 195.599 2454.08 194.899C2446.13 194.54 2434 197.138 2426.75 195.52C2418.25 193.63 2406.67 183.938 2398.62 179.341C2385.11 171.599 2378.85 172.118 2364.41 171.091C2352.45 170.251 2340.55 169.2 2328.68 169.06C2321.06 168.97 2305.32 173.388 2298.66 171.208C2290.72 168.599 2281.08 154.528 2275.63 147.77C2260.5 128.989 2249.4 124.259 2224.92 114.501C2204.6 106.431 2191.12 95.0908 2174.46 81.0088C2158.95 67.9189 2142.81 71.8486 2125.57 62.0791C2117.26 57.3681 2108.87 50.6494 2100.69 45.3095C2092.38 39.8799 2077.28 24.29 2068.54 22.1377C2056.92 19.2588 2034.57 30.0283 2025.84 35.208C2008.8 45.29 1990.79 53.3877 1967.73 53.54C1958.06 53.5986 1947.82 50.5986 1937.96 50.6884C1922.38 50.8408 1907.32 55.9189 1892.66 57.9306C1880 59.6689 1868.64 64.7783 1856.96 69.0478C1842.49 74.3486 1826.95 77.0791 1812.46 82.0478C1794.4 88.2705 1784.48 107.938 1764.18 107.509C1739.07 106.97 1707.45 92.5986 1683.84 84.54C1671.83 80.4306 1660.39 73.3291 1648.19 69.5986C1623.68 62.0986 1596.8 67.0908 1571.96 62.2705C1551.49 58.3095 1535.7 43.7509 1513.84 43.0908C1507.69 42.9111 1499.49 44.0478 1493.23 45.04C1482.81 46.6806 1482.56 46.3486 1477.24 56.2314C1469.65 70.3291 1458.03 83.3213 1449.08 97.0205C1441.1 109.251 1436.49 123.329 1425.92 134.669C1419.97 141.06 1411.07 144.669 1405.13 150.188C1398.2 156.419 1312.49 195.731 1300.18 197.591C1295.76 193.099 1290.12 172.231 1286.08 171.419C1282.3 170.669 1277.84 168.61 1273.79 167.618C1269.03 166.45 1264.15 167.001 1258.76 166.571C1254.56 166.239 1250.06 164.888 1246.73 163.149C1242.86 161.13 1241.09 158.149 1237.67 155.829C1234.63 153.759 1230.89 152.278 1228.21 149.97C1226.01 148.071 1225.1 146.731 1222.1 145.56C1216.63 143.431 1211.76 141.028 1205.77 139.579C1198.72 137.868 1192.09 135.638 1184.91 134.208C1179.38 133.11 1175.45 132.278 1173.01 128.868C1171.45 126.688 1170.69 124.079 1168.67 122.02C1166.97 120.29 1164.51 119.001 1162.77 117.27C1161.25 115.759 1160.22 114.001 1158.07 112.829C1155.32 111.349 1151.89 110.56 1149.08 109.349C1145.24 107.7 1143.11 105.501 1138.9 104.048C1134.69 102.591 1131.75 101.438 1127.19 100.649C1123.29 99.9814 1119.5 98.7002 1115.61 97.9111C1109.74 96.7197 1103.88 96.04 1097.93 95.0908C1088.21 93.54 1078.24 92.2002 1068.95 89.9111C1065.46 89.0478 1061.79 89.2509 1058.43 88.3681C1053.71 87.1181 1050.84 85.3291 1045.52 84.8291C1043.38 84.6377 1041.01 85.0478 1038.97 84.8213C1036.84 84.5791 1035.35 83.8877 1033.09 83.6884C1028.74 83.2978 1023.8 84.1181 1019.35 84.208C1013.74 84.3408 1009.71 83.3095 1004.5 82.5478C993.32 80.8877 983.078 79.1299 972.762 75.7783C966.449 73.7314 960.07 70.7705 955.039 67.5205C950.719 64.7197 946.648 63.5088 940.988 62.2314C936.73 61.2588 933.141 59.8799 928.559 59.4306C922.719 58.8486 916.52 58.8681 910.859 57.79C905.75 56.8095 900.77 55.0009 895.852 53.708C888.219 51.7197 882.172 48.2588 875.012 45.8681C870.441 44.3486 866.121 43.1299 861.789 41.3408C857.07 39.3994 851.84 36.7783 846.82 35.3291C842.078 33.9502 836.301 33.3291 831.379 32.2392C827.781 31.4384 824.629 30.2392 820.949 29.6806C812.051 28.3095 802.578 28.8877 793.609 27.8486C781.988 26.5088 772.238 21.7783 764.469 16.2783C755.539 9.9697 745.82 3.39939 733.648 0.45798C728.031 -0.901395 726.5 0.938449 721.609 3.70017C714.691 7.61814 707.719 11.5009 701.172 15.7197C693.262 20.8095 686.379 25.8877 677.93 30.3877C674.531 32.2002 670.551 33.5009 667.148 35.2978C664.91 36.4814 664.941 37.2002 663.301 38.1494C662.059 38.8681 660.73 39.1103 659.559 39.7705C656.77 41.3213 654.191 43.6181 651.57 45.4306C646.141 49.1377 640.672 52.79 635.102 56.4111C630.738 59.2392 627.309 62.0986 624.941 65.7588C620.891 65.7002 617.512 64.2783 613.559 63.9502C609.781 63.6377 606.039 64.2509 602.141 64.6884C596.59 65.3213 590.988 65.7588 585.449 66.5283C576.07 67.8213 568.059 75.2197 559.078 78.5595C554.141 80.4111 550.621 79.6494 545.781 79.5986C540.211 79.5478 532.199 80.54 526.52 81.8213C522.309 82.7705 518.301 85.5283 514.391 87.4814C506.328 91.4892 497.398 96.0205 490.359 100.88C482.48 106.321 472.559 111.731 466.84 118.208C464.07 121.341 458.82 124.669 454.602 127.091C452.059 128.54 449.211 129.169 446.602 130.489C443.852 131.88 441.641 133.54 438.781 134.899C435.301 136.528 430.59 138.798 428.531 141.388C427.68 142.481 427.191 144.599 426.531 145.79C424.41 149.61 423.141 153.079 420.309 156.849C418.941 158.669 417.73 160.481 416.41 162.31C416.02 162.86 414.41 165.231 414.078 165.47C412.719 166.489 411.23 167.06 408.988 166.72C408 166.579 407.039 165.829 406.18 165.528C404.262 164.88 402.07 164.841 400.109 164.341C396.02 163.278 394.809 161.388 389.672 162.548C385.281 163.528 383.199 166.349 380.059 168.821C377.691 170.688 375.57 172.911 373.059 174.669C371.148 175.989 371.109 175.989 368.711 176.548C367.531 176.821 366.23 176.649 365.07 177.02C364.16 177.298 363.629 178.13 363.012 178.329C358.512 179.77 353.551 182.048 349.02 183.22C346.141 183.958 344.25 183.938 341.488 184.931C339.172 185.77 337.57 186.751 335.5 187.7C326.711 191.688 319.801 197.419 310.039 200.79C304.809 202.591 301.891 202.548 296.738 202.399C291.359 202.239 285.711 202.981 280.328 202.81C275.762 202.649 267.559 203.47 263.91 202.06C255.828 198.931 250.352 192.888 242.781 189.481C239.309 187.931 236.039 185.981 231.41 185.638C227.328 185.341 222.699 186.091 218.352 185.981C212.801 185.829 208.57 184.36 204.352 182.29C198.449 179.399 191.949 176.81 185.102 174.759C178.227 172.7 170.672 172.048 162.641 171.661C153.855 171.239 144.285 172.56 135.602 172.13C130.34 171.868 124.523 170.118 119.902 168.899C118.172 168.45 115.793 168.579 114.27 167.919C112.383 167.099 110.449 165.599 108.656 164.591C106.371 163.29 104.801 161.528 102.438 160.29C99.5312 158.77 96.9414 157.841 95.0703 155.618C93.1523 153.349 90.9414 151.591 88.6836 149.548C87.6172 148.579 84.8164 144.88 83.3867 144.7C81.1094 144.399 72.8125 149.708 70.8008 151.208C69.543 152.13 68.7305 153.431 67.4609 154.341C66.1875 155.239 64.6445 155.868 63.6602 156.708C63.0625 157.22 62.0117 159.31 61.4219 160.001C59.6172 162.138 57.2813 164.329 54.9258 166.231C43.4922 175.438 29.4766 180.388 14.9648 185.13C11.2383 186.341 6.61719 187.02 3.14453 188.591C0.8125 189.649 -1.69141 191.239 -4.19922 192.368C-10.2695 195.091 -17.8594 197.501 -23.2109 201.22C-24.5781 202.181 -25.332 203.13 -26.4453 204.149C-29.1836 206.638 -32.0352 208.27 -35.2461 210.528C-43.0469 216.02 -50.9961 221.298 -59.0469 226.638C-64.9023 230.54 -69.3398 234.329 -73.2344 239.22C-76.6406 243.489 -78.7969 247.751 -81.875 251.899C-84.1992 255.02 -86.293 257.911 -89.6875 260.739C-94.5156 264.77 -99.5586 265.13 -105.695 265.708C-112.453 266.349 -118.68 264.798 -125.062 264.481C-126.738 264.399 -127.777 264.278 -129.297 264.091C-131.16 263.849 -131.891 263.169 -134.508 264.149C-137.949 265.438 -139.699 268.149 -142.129 270.31C-146.383 274.071 -151.621 277.56 -155.941 281.61C-160.332 285.731 -165.832 290.118 -171.555 293.169C-175.75 295.399 -179.586 297.29 -183.406 299.79C-195.363 307.618 -207.996 315.739 -220.355 322.481C-232.66 329.181 -245.684 333.29 -258.953 336.681C-264.258 338.04 -268.992 338.239 -274.344 339.778C-285.738 343.04 -297.465 345.669 -308.762 349.7C-312.055 350.88 -317.227 352.501 -320.363 354.431C-322.262 355.599 -324.355 357.591 -326.523 358.899C-331.809 362.11 -337.234 364.88 -342.684 367.821C-350.262 371.919 -356.973 376.829 -364.238 381.29C-371.703 385.88 -379.922 388.841 -387.926 391.981C-399.504 396.52 -411.855 399.638 -423.465 403.251C-431.648 405.798 -440.625 407.868 -448.574 412.06C-450.691 413.169 -453.617 415.45 -455.75 415.821C-457 416.04 -460.574 415.411 -461.621 415.431C-467.336 415.509 -474.266 414.048 -479.855 415.329C-482.375 415.899 -486.004 418.161 -488.469 419.29C-494.133 421.911 -499.695 424.161 -505.418 426.419C-515.434 430.38 -525.434 434.419 -535.422 438.481C-542.883 441.509 -549.555 445.54 -556.801 449.138C-560.875 451.169 -562.406 452.161 -565.566 454.72C-576.113 463.27 -588.41 468.958 -600.242 475.501C-603.094 477.071 -605.105 479.548 -608.035 480.36C-612.023 481.481 -617.336 480.38 -621.297 480.829C-628.945 481.72 -637.043 484.161 -644.781 485.321C-649.672 486.048 -654.387 486.489 -659.27 487.091C-668.758 488.259 -679.219 492.77 -688.969 495.138C-694.824 496.56 -697.688 494.548 -703.066 495.708C-710.035 497.2 -715.781 498.048 -723.02 501.009C-729.84 503.798 -736.426 507.368 -743.09 510.86C-763.582 521.599 -785.605 531.739 -803.453 546.79C-807.656 550.329 -812.707 553.259 -818 555.841V1058.48Z" fill="#313131"/>
</svg>
